<svg xmlns="http://www.w3.org/2000/svg" width="1500" height="810" viewBox="0 0 250 135">
  <rect width="250" height="135" fill="#f7f8fa"/>
  <style>.t{font:3px sans-serif;fill:#17212b}.s{font:2.4px sans-serif;fill:#17212b}.h{font:bold 5px sans-serif;fill:#10243e}.board{fill:#eaf5ec;stroke:#245c35;stroke-width:.7}.top{fill:#ffd6a5;stroke:#a85b00;stroke-width:.45}.bot{fill:#bde0fe;stroke:#1d5f91;stroke-width:.45}.dk{fill:#cdb4db;stroke:#6a3d86;stroke-width:.55}.hole{fill:none;stroke:#444;stroke-width:.55}.axis{stroke:#222;stroke-width:.35;marker-end:url(#a)}.warn{font:bold 2.8px sans-serif;fill:#9b2226}</style>
  <defs><marker id="a" markerWidth="4" markerHeight="4" refX="3" refY="2" orient="auto"><path d="M0,0 L4,2 L0,4 Z" fill="#222"/></marker></defs>
  <text x="10" y="8" class="h">Proposal 015E — E1 controlled installed-body map</text>
  <text x="10" y="12" class="warn">PROJECT ENGINEERING KEEP-OUT — NOT MANUFACTURER MAXIMUM</text>
  <rect x="10" y="15" width="150" height="110" rx="2" class="board"/>
  <line x1="10" y1="125" x2="25" y2="125" class="axis"/><line x1="10" y1="125" x2="10" y2="110" class="axis"/>
  <text x="26" y="126" class="s">+X</text><text x="7" y="109" class="s">+Y</text><text x="10" y="130" class="s">MB1939 datum (0,0); plotted top view, mm</text>
  <!-- Bottom-side E1 controlled boxes, centered on native origins for map readability; CSV is controlling. -->
  <rect x="146.3" y="89.6" width="12.5" height="11.2" class="bot"/><text x="147" y="96" class="s">CN6</text>
  <rect x="11.1" y="91.9" width="12.5" height="11.2" class="bot"/><text x="13" y="98" class="s">CN18</text>
  <rect x="5.1" y="65.9" width="17.3" height="18.0" class="bot"/><text x="7" y="75" class="s">CN17</text>
  <rect x="135.2" y="117.8" width="12.3" height="4.5" class="bot"/><text x="137" y="121" class="s">CN9</text>
  <rect x="100.2" y="118.2" width="7.8" height="14.7" class="bot"/><text x="100.5" y="126" class="s">CN10</text>
  <rect x="122.7" y="116.8" width="8" height="7" class="bot"/><text x="123" y="121" class="s">JP1</text>
  <rect x="112.3" y="113.5" width="11" height="12" class="bot"/><text x="113" y="120" class="s">JP2</text>
  <rect x="54.8" y="17.4" width="18.4" height="7.1" class="bot"/><text x="60" y="22" class="s">CN14</text>
  <rect x="76.7" y="117" width="16.6" height="16.2" class="bot"/><text x="80" y="125" class="s">CN13</text>
  <rect x="141.2" y="66.7" width="7.2" height="17.7" class="dk"/><text x="141.5" y="76" class="s">CN7</text>
  <rect x="141.2" y="42.8" width="7.2" height="22.8" class="dk"/><text x="141.5" y="54" class="s">CN8</text>
  <rect x="92.9" y="60.6" width="7.2" height="22.8" class="dk"/><text x="93.2" y="72" class="s">CN11</text>
  <rect x="92.9" y="33.7" width="7.2" height="27.9" class="dk"/><text x="93.2" y="48" class="s">CN12</text>
  <rect x="39.2" y="115.3" width="8" height="18.9" class="bot"/><text x="40" y="125" class="s">CN15</text>
  <rect x="-1.9" y="35.9" width="23.8" height="24.8" class="bot"/><text x="4" y="49" class="s">CN16</text>
  <rect x="52.7" y="70.4" width="22.7" height="22.7" class="bot"/><text x="60" y="82" class="s">U27</text>
  <!-- Top-side bodies -->
  <rect x="11.4" y="24" width="8.9" height="14.6" class="top"/><text x="12" y="32" class="s">CN1</text>
  <circle cx="154.3" cy="69.9" r="4.4" class="top"/><text x="151.6" y="71" class="s">B1</text>
  <circle cx="154.3" cy="57.2" r="4.4" class="top"/><text x="151.6" y="58.3" class="s">B2</text>
  <circle cx="154.3" cy="44.5" r="4.4" class="top"/><text x="151.6" y="45.6" class="s">B4</text>
  <rect x="26.4" y="16.6" width="19.8" height="7.1" class="top"/><text x="32" y="21" class="s">CN2</text>
  <rect x="68.1" y="55.7" width="33.9" height="6.6" class="top"/><text x="80" y="60" class="s">CN3</text>
  <rect x="117.3" y="18.7" width="22.3" height="11.9" class="top"/><text x="124" y="25" class="s">CN4</text>
  <rect x="153.9" y="99.1" width="5" height="15.2" class="top"/><text x="151" y="107" class="s">CN5</text>
  <rect x="148.5" y="30.8" width="12" height="4.5" class="top"/><text x="150" y="34" class="s">SW1</text>
  <rect x="148.5" y="27.9" width="12" height="4.5" class="top"/><text x="150" y="31" class="s">SW2</text>
  <!-- All official mounting holes -->
  <circle cx="15.08" cy="119.92" r="3.5" class="hole"/><circle cx="15.08" cy="20.08" r="3.5" class="hole"/>
  <circle cx="154.92" cy="119.92" r="3.5" class="hole"/><circle cx="154.92" cy="20.08" r="3.5" class="hole"/>
  <circle cx="26.76" cy="118.82" r="4.5" class="hole"/><circle cx="26.76" cy="33.28" r="4.5" class="hole"/>
  <circle cx="143.24" cy="118.82" r="4.5" class="hole"/><circle cx="143.24" cy="33.28" r="4.5" class="hole"/>
  <text x="166" y="18" class="h">Map basis</text>
  <rect x="166" y="23" width="8" height="5" class="bot"/><text x="176" y="27" class="t">Bottom-side E1</text>
  <rect x="166" y="31" width="8" height="5" class="top"/><text x="176" y="35" class="t">Top-side E1</text>
  <rect x="166" y="39" width="8" height="5" class="dk"/><text x="176" y="43" class="t">DK mating sockets</text>
  <circle cx="170" cy="51" r="3" class="hole"/><text x="176" y="52" class="t">Native hole/pad land</text>
  <text x="166" y="61" class="t">E1 = native nominal body</text><text x="166" y="65" class="t">plus the documented project</text><text x="166" y="69" class="t">bounding allowance in CSV.</text>
  <text x="166" y="78" class="t">Manufacturer drawings set</text><text x="166" y="82" class="t">part identity and nominal</text><text x="166" y="86" class="t">operation. These boxes are</text><text x="166" y="90" class="t">not claimed as manufacturer</text><text x="166" y="94" class="t">maximum dimensions.</text>
  <text x="166" y="104" class="t">Controlling data:</text><text x="166" y="108" class="s">proposal_015e_mb1939_</text><text x="166" y="112" class="s">service_envelopes.csv</text>
</svg>
