<?xml version="1.0" standalone="no"?>
 <!DOCTYPE svg PUBLIC "-//W3C//DTD SVG 1.1//EN" 
 "http://www.w3.org/Graphics/SVG/1.1/DTD/svg11.dtd"> 
<svg
  xmlns:svg="http://www.w3.org/2000/svg"
  xmlns="http://www.w3.org/2000/svg"
  xmlns:xlink="http://www.w3.org/1999/xlink"
  version="1.1"
  width="28.1432mm" height="34.1376mm" viewBox="0.0000 0.0000 28.1432 34.1376">
<title>SVG Image created as CN8_back_review.svg date 2026/07/20 14:43:09 </title>
  <desc>Image generated by PCBNEW </desc>
<g style="fill:#000000; fill-opacity:1.0000;stroke:#000000; stroke-opacity:1.0000;
stroke-linecap:round; stroke-linejoin:round;"
 transform="translate(0 0) scale(1 1)">
<path style="fill:#4D7FC4; fill-opacity:1.0000; stroke:none;fill-rule:evenodd;"
d="M 11.2682,17.4750
11.2682,15.6750
9.4682,15.6750
9.4682,17.4750
Z" /> 
</g>
<g style="fill:#4D7FC4; fill-opacity:1.0000; stroke:none;">
<circle cx="7.8282" cy="16.5750" r="0.9000" /> 
</g>
<g style="fill:#4D7FC4; fill-opacity:1.0000; stroke:none;">
<circle cx="5.2882" cy="16.5750" r="0.9000" /> 
</g>
<g style="fill:#4D7FC4; fill-opacity:1.0000; stroke:none;">
<circle cx="10.3682" cy="5.0750" r="0.8500" /> 
</g>
<g style="fill:#4D7FC4; fill-opacity:1.0000; stroke:none;">
<circle cx="7.8282" cy="5.0750" r="0.8500" /> 
</g>
<g style="fill:#02FFEE; fill-opacity:0.4000; stroke:none;">
<circle cx="12.8682" cy="20.5750" r="1.0000" /> 
</g>
<g style="fill:#02FFEE; fill-opacity:0.4000; stroke:none;">
<circle cx="2.7882" cy="20.5750" r="1.0000" /> 
<path style="fill:#02FFEE; fill-opacity:0.4000; stroke:none;fill-rule:evenodd;"
d="M 11.2682,17.4750
11.2682,15.6750
9.4682,15.6750
9.4682,17.4750
Z" /> 
</g>
<g style="fill:#02FFEE; fill-opacity:0.4000; stroke:none;">
<circle cx="7.8282" cy="16.5750" r="0.9000" /> 
</g>
<g style="fill:#02FFEE; fill-opacity:0.4000; stroke:none;">
<circle cx="5.2882" cy="16.5750" r="0.9000" /> 
</g>
<g style="fill:#02FFEE; fill-opacity:0.4000; stroke:none;">
<circle cx="23.0682" cy="5.0750" r="0.5100" /> 
</g>
<g style="fill:#02FFEE; fill-opacity:0.4000; stroke:none;">
<circle cx="20.5282" cy="5.0750" r="0.5100" /> 
</g>
<g style="fill:#02FFEE; fill-opacity:0.4000; stroke:none;">
<circle cx="17.9882" cy="5.0750" r="0.5100" /> 
</g>
<g style="fill:#02FFEE; fill-opacity:0.4000; stroke:none;">
<circle cx="15.4482" cy="5.0750" r="0.5100" /> 
</g>
<g style="fill:#02FFEE; fill-opacity:0.4000; stroke:none;">
<circle cx="12.9082" cy="5.0750" r="0.5100" /> 
</g>
<g style="fill:#02FFEE; fill-opacity:0.4000; stroke:none;">
<circle cx="5.2882" cy="5.0750" r="0.5100" /> 
</g>
<g style="fill:#02FFEE; fill-opacity:0.4000; stroke:none;">
<circle cx="10.3682" cy="5.0750" r="0.8500" /> 
</g>
<g style="fill:#02FFEE; fill-opacity:0.4000; stroke:none;">
<circle cx="7.8282" cy="5.0750" r="0.8500" /> 
</g>
<g style="fill:#02FFEE; fill-opacity:0.4000; stroke:none;">
<circle cx="19.0682" cy="29.5750" r="1.3500" /> 
</g>
<g style="fill:#02FFEE; fill-opacity:0.4000; stroke:none;">
<circle cx="9.0682" cy="29.5750" r="1.3500" /> 
</g>
<g style="fill:none; 
stroke:#E8B2A7; stroke-width:0.1360; stroke-opacity:1; 
stroke-linecap:round; stroke-linejoin:round;">
<text x="14.0682" y="2.3750"
textLength="12.1718" font-size="1.0667" lengthAdjust="spacingAndGlyphs"
text-anchor="middle" opacity="0" stroke-opacity="0">DEVELOPMENT ONLY</text>
<g class="stroked-text"><desc>DEVELOPMENT ONLY</desc>
<path d="M8.2968 2.3380
L8.2968 1.5380
" />
<path d="M8.2968 1.5380
L8.4872 1.5380
" />
<path d="M8.4872 1.5380
L8.6015 1.5761
" />
<path d="M8.6015 1.5761
L8.6777 1.6523
" />
<path d="M8.6777 1.6523
L8.7158 1.7285
" />
<path d="M8.7158 1.7285
L8.7539 1.8809
" />
<path d="M8.7539 1.8809
L8.7539 1.9952
" />
<path d="M8.7539 1.9952
L8.7158 2.1475
" />
<path d="M8.7158 2.1475
L8.6777 2.2237
" />
<path d="M8.6777 2.2237
L8.6015 2.2999
" />
<path d="M8.6015 2.2999
L8.4872 2.3380
" />
<path d="M8.4872 2.3380
L8.2968 2.3380
" />
<path d="M9.0968 1.9190
L9.3634 1.9190
" />
<path d="M9.4777 2.3380
L9.0968 2.3380
" />
<path d="M9.0968 2.3380
L9.0968 1.5380
" />
<path d="M9.0968 1.5380
L9.4777 1.5380
" />
<path d="M9.7063 1.5380
L9.9730 2.3380
" />
<path d="M9.9730 2.3380
L10.2396 1.5380
" />
<path d="M10.5063 1.9190
L10.7730 1.9190
" />
<path d="M10.8872 2.3380
L10.5063 2.3380
" />
<path d="M10.5063 2.3380
L10.5063 1.5380
" />
<path d="M10.5063 1.5380
L10.8872 1.5380
" />
<path d="M11.6111 2.3380
L11.2301 2.3380
" />
<path d="M11.2301 2.3380
L11.2301 1.5380
" />
<path d="M12.0301 1.5380
L12.1825 1.5380
" />
<path d="M12.1825 1.5380
L12.2587 1.5761
" />
<path d="M12.2587 1.5761
L12.3349 1.6523
" />
<path d="M12.3349 1.6523
L12.3730 1.8047
" />
<path d="M12.3730 1.8047
L12.3730 2.0714
" />
<path d="M12.3730 2.0714
L12.3349 2.2237
" />
<path d="M12.3349 2.2237
L12.2587 2.2999
" />
<path d="M12.2587 2.2999
L12.1825 2.3380
" />
<path d="M12.1825 2.3380
L12.0301 2.3380
" />
<path d="M12.0301 2.3380
L11.9539 2.2999
" />
<path d="M11.9539 2.2999
L11.8777 2.2237
" />
<path d="M11.8777 2.2237
L11.8396 2.0714
" />
<path d="M11.8396 2.0714
L11.8396 1.8047
" />
<path d="M11.8396 1.8047
L11.8777 1.6523
" />
<path d="M11.8777 1.6523
L11.9539 1.5761
" />
<path d="M11.9539 1.5761
L12.0301 1.5380
" />
<path d="M12.7158 2.3380
L12.7158 1.5380
" />
<path d="M12.7158 1.5380
L13.0206 1.5380
" />
<path d="M13.0206 1.5380
L13.0968 1.5761
" />
<path d="M13.0968 1.5761
L13.1349 1.6142
" />
<path d="M13.1349 1.6142
L13.1730 1.6904
" />
<path d="M13.1730 1.6904
L13.1730 1.8047
" />
<path d="M13.1730 1.8047
L13.1349 1.8809
" />
<path d="M13.1349 1.8809
L13.0968 1.9190
" />
<path d="M13.0968 1.9190
L13.0206 1.9571
" />
<path d="M13.0206 1.9571
L12.7158 1.9571
" />
<path d="M13.5158 2.3380
L13.5158 1.5380
" />
<path d="M13.5158 1.5380
L13.7825 2.1095
" />
<path d="M13.7825 2.1095
L14.0492 1.5380
" />
<path d="M14.0492 1.5380
L14.0492 2.3380
" />
<path d="M14.4301 1.9190
L14.6968 1.9190
" />
<path d="M14.8111 2.3380
L14.4301 2.3380
" />
<path d="M14.4301 2.3380
L14.4301 1.5380
" />
<path d="M14.4301 1.5380
L14.8111 1.5380
" />
<path d="M15.1539 2.3380
L15.1539 1.5380
" />
<path d="M15.1539 1.5380
L15.6111 2.3380
" />
<path d="M15.6111 2.3380
L15.6111 1.5380
" />
<path d="M15.8777 1.5380
L16.3349 1.5380
" />
<path d="M16.1063 2.3380
L16.1063 1.5380
" />
<path d="M17.3634 1.5380
L17.5158 1.5380
" />
<path d="M17.5158 1.5380
L17.5920 1.5761
" />
<path d="M17.5920 1.5761
L17.6682 1.6523
" />
<path d="M17.6682 1.6523
L17.7063 1.8047
" />
<path d="M17.7063 1.8047
L17.7063 2.0714
" />
<path d="M17.7063 2.0714
L17.6682 2.2237
" />
<path d="M17.6682 2.2237
L17.5920 2.2999
" />
<path d="M17.5920 2.2999
L17.5158 2.3380
" />
<path d="M17.5158 2.3380
L17.3634 2.3380
" />
<path d="M17.3634 2.3380
L17.2872 2.2999
" />
<path d="M17.2872 2.2999
L17.2111 2.2237
" />
<path d="M17.2111 2.2237
L17.1730 2.0714
" />
<path d="M17.1730 2.0714
L17.1730 1.8047
" />
<path d="M17.1730 1.8047
L17.2111 1.6523
" />
<path d="M17.2111 1.6523
L17.2872 1.5761
" />
<path d="M17.2872 1.5761
L17.3634 1.5380
" />
<path d="M18.0492 2.3380
L18.0492 1.5380
" />
<path d="M18.0492 1.5380
L18.5063 2.3380
" />
<path d="M18.5063 2.3380
L18.5063 1.5380
" />
<path d="M19.2682 2.3380
L18.8872 2.3380
" />
<path d="M18.8872 2.3380
L18.8872 1.5380
" />
<path d="M19.6872 1.9571
L19.6872 2.3380
" />
<path d="M19.4206 1.5380
L19.6872 1.9571
" />
<path d="M19.6872 1.9571
L19.9539 1.5380
" />
</g><text x="14.0682" y="10.2750"
textLength="21.1242" font-size="1.0667" lengthAdjust="spacingAndGlyphs"
text-anchor="middle" opacity="0" stroke-opacity="0">DNC = NPTH / NO CU / NO WIRE</text>
<g class="stroked-text"><desc>DNC = NPTH / NO CU / NO WIRE</desc>
<path d="M3.8206 10.2380
L3.8206 9.4380
" />
<path d="M3.8206 9.4380
L4.0111 9.4380
" />
<path d="M4.0111 9.4380
L4.1253 9.4761
" />
<path d="M4.1253 9.4761
L4.2015 9.5523
" />
<path d="M4.2015 9.5523
L4.2396 9.6285
" />
<path d="M4.2396 9.6285
L4.2777 9.7809
" />
<path d="M4.2777 9.7809
L4.2777 9.8952
" />
<path d="M4.2777 9.8952
L4.2396 10.0475
" />
<path d="M4.2396 10.0475
L4.2015 10.1237
" />
<path d="M4.2015 10.1237
L4.1253 10.1999
" />
<path d="M4.1253 10.1999
L4.0111 10.2380
" />
<path d="M4.0111 10.2380
L3.8206 10.2380
" />
<path d="M4.6206 10.2380
L4.6206 9.4380
" />
<path d="M4.6206 9.4380
L5.0777 10.2380
" />
<path d="M5.0777 10.2380
L5.0777 9.4380
" />
<path d="M5.9158 10.1618
L5.8777 10.1999
" />
<path d="M5.8777 10.1999
L5.7634 10.2380
" />
<path d="M5.7634 10.2380
L5.6872 10.2380
" />
<path d="M5.6872 10.2380
L5.5730 10.1999
" />
<path d="M5.5730 10.1999
L5.4968 10.1237
" />
<path d="M5.4968 10.1237
L5.4587 10.0475
" />
<path d="M5.4587 10.0475
L5.4206 9.8952
" />
<path d="M5.4206 9.8952
L5.4206 9.7809
" />
<path d="M5.4206 9.7809
L5.4587 9.6285
" />
<path d="M5.4587 9.6285
L5.4968 9.5523
" />
<path d="M5.4968 9.5523
L5.5730 9.4761
" />
<path d="M5.5730 9.4761
L5.6872 9.4380
" />
<path d="M5.6872 9.4380
L5.7634 9.4380
" />
<path d="M5.7634 9.4380
L5.8777 9.4761
" />
<path d="M5.8777 9.4761
L5.9158 9.5142
" />
<path d="M6.8682 9.8190
L7.4777 9.8190
" />
<path d="M7.4777 10.0475
L6.8682 10.0475
" />
<path d="M8.4682 10.2380
L8.4682 9.4380
" />
<path d="M8.4682 9.4380
L8.9253 10.2380
" />
<path d="M8.9253 10.2380
L8.9253 9.4380
" />
<path d="M9.3063 10.2380
L9.3063 9.4380
" />
<path d="M9.3063 9.4380
L9.6111 9.4380
" />
<path d="M9.6111 9.4380
L9.6872 9.4761
" />
<path d="M9.6872 9.4761
L9.7253 9.5142
" />
<path d="M9.7253 9.5142
L9.7634 9.5904
" />
<path d="M9.7634 9.5904
L9.7634 9.7047
" />
<path d="M9.7634 9.7047
L9.7253 9.7809
" />
<path d="M9.7253 9.7809
L9.6872 9.8190
" />
<path d="M9.6872 9.8190
L9.6111 9.8571
" />
<path d="M9.6111 9.8571
L9.3063 9.8571
" />
<path d="M9.9920 9.4380
L10.4492 9.4380
" />
<path d="M10.2206 10.2380
L10.2206 9.4380
" />
<path d="M10.7158 10.2380
L10.7158 9.4380
" />
<path d="M10.7158 9.8190
L11.1730 9.8190
" />
<path d="M11.1730 10.2380
L11.1730 9.4380
" />
<path d="M12.7349 9.3999
L12.0492 10.4285
" />
<path d="M13.6111 10.2380
L13.6111 9.4380
" />
<path d="M13.6111 9.4380
L14.0682 10.2380
" />
<path d="M14.0682 10.2380
L14.0682 9.4380
" />
<path d="M14.6015 9.4380
L14.7539 9.4380
" />
<path d="M14.7539 9.4380
L14.8301 9.4761
" />
<path d="M14.8301 9.4761
L14.9063 9.5523
" />
<path d="M14.9063 9.5523
L14.9444 9.7047
" />
<path d="M14.9444 9.7047
L14.9444 9.9714
" />
<path d="M14.9444 9.9714
L14.9063 10.1237
" />
<path d="M14.9063 10.1237
L14.8301 10.1999
" />
<path d="M14.8301 10.1999
L14.7539 10.2380
" />
<path d="M14.7539 10.2380
L14.6015 10.2380
" />
<path d="M14.6015 10.2380
L14.5253 10.1999
" />
<path d="M14.5253 10.1999
L14.4492 10.1237
" />
<path d="M14.4492 10.1237
L14.4111 9.9714
" />
<path d="M14.4111 9.9714
L14.4111 9.7047
" />
<path d="M14.4111 9.7047
L14.4492 9.5523
" />
<path d="M14.4492 9.5523
L14.5253 9.4761
" />
<path d="M14.5253 9.4761
L14.6015 9.4380
" />
<path d="M16.3539 10.1618
L16.3158 10.1999
" />
<path d="M16.3158 10.1999
L16.2015 10.2380
" />
<path d="M16.2015 10.2380
L16.1253 10.2380
" />
<path d="M16.1253 10.2380
L16.0111 10.1999
" />
<path d="M16.0111 10.1999
L15.9349 10.1237
" />
<path d="M15.9349 10.1237
L15.8968 10.0475
" />
<path d="M15.8968 10.0475
L15.8587 9.8952
" />
<path d="M15.8587 9.8952
L15.8587 9.7809
" />
<path d="M15.8587 9.7809
L15.8968 9.6285
" />
<path d="M15.8968 9.6285
L15.9349 9.5523
" />
<path d="M15.9349 9.5523
L16.0111 9.4761
" />
<path d="M16.0111 9.4761
L16.1253 9.4380
" />
<path d="M16.1253 9.4380
L16.2015 9.4380
" />
<path d="M16.2015 9.4380
L16.3158 9.4761
" />
<path d="M16.3158 9.4761
L16.3539 9.5142
" />
<path d="M16.6968 9.4380
L16.6968 10.0856
" />
<path d="M16.6968 10.0856
L16.7349 10.1618
" />
<path d="M16.7349 10.1618
L16.7730 10.1999
" />
<path d="M16.7730 10.1999
L16.8492 10.2380
" />
<path d="M16.8492 10.2380
L17.0015 10.2380
" />
<path d="M17.0015 10.2380
L17.0777 10.1999
" />
<path d="M17.0777 10.1999
L17.1158 10.1618
" />
<path d="M17.1158 10.1618
L17.1539 10.0856
" />
<path d="M17.1539 10.0856
L17.1539 9.4380
" />
<path d="M18.7158 9.3999
L18.0301 10.4285
" />
<path d="M19.5920 10.2380
L19.5920 9.4380
" />
<path d="M19.5920 9.4380
L20.0492 10.2380
" />
<path d="M20.0492 10.2380
L20.0492 9.4380
" />
<path d="M20.5825 9.4380
L20.7349 9.4380
" />
<path d="M20.7349 9.4380
L20.8111 9.4761
" />
<path d="M20.8111 9.4761
L20.8872 9.5523
" />
<path d="M20.8872 9.5523
L20.9253 9.7047
" />
<path d="M20.9253 9.7047
L20.9253 9.9714
" />
<path d="M20.9253 9.9714
L20.8872 10.1237
" />
<path d="M20.8872 10.1237
L20.8111 10.1999
" />
<path d="M20.8111 10.1999
L20.7349 10.2380
" />
<path d="M20.7349 10.2380
L20.5825 10.2380
" />
<path d="M20.5825 10.2380
L20.5063 10.1999
" />
<path d="M20.5063 10.1999
L20.4301 10.1237
" />
<path d="M20.4301 10.1237
L20.3920 9.9714
" />
<path d="M20.3920 9.9714
L20.3920 9.7047
" />
<path d="M20.3920 9.7047
L20.4301 9.5523
" />
<path d="M20.4301 9.5523
L20.5063 9.4761
" />
<path d="M20.5063 9.4761
L20.5825 9.4380
" />
<path d="M21.8015 9.4380
L21.9920 10.2380
" />
<path d="M21.9920 10.2380
L22.1444 9.6666
" />
<path d="M22.1444 9.6666
L22.2968 10.2380
" />
<path d="M22.2968 10.2380
L22.4872 9.4380
" />
<path d="M22.7920 10.2380
L22.7920 9.4380
" />
<path d="M23.6301 10.2380
L23.3634 9.8571
" />
<path d="M23.1730 10.2380
L23.1730 9.4380
" />
<path d="M23.1730 9.4380
L23.4777 9.4380
" />
<path d="M23.4777 9.4380
L23.5539 9.4761
" />
<path d="M23.5539 9.4761
L23.5920 9.5142
" />
<path d="M23.5920 9.5142
L23.6301 9.5904
" />
<path d="M23.6301 9.5904
L23.6301 9.7047
" />
<path d="M23.6301 9.7047
L23.5920 9.7809
" />
<path d="M23.5920 9.7809
L23.5539 9.8190
" />
<path d="M23.5539 9.8190
L23.4777 9.8571
" />
<path d="M23.4777 9.8571
L23.1730 9.8571
" />
<path d="M23.9730 9.8190
L24.2396 9.8190
" />
<path d="M24.3539 10.2380
L23.9730 10.2380
" />
<path d="M23.9730 10.2380
L23.9730 9.4380
" />
<path d="M23.9730 9.4380
L24.3539 9.4380
" />
</g><text x="14.0682" y="7.7750"
textLength="15.3337" font-size="1.0667" lengthAdjust="spacingAndGlyphs"
text-anchor="middle" opacity="0" stroke-opacity="0">DNC P2 IOREF / P4 3V3</text>
<g class="stroked-text"><desc>DNC P2 IOREF / P4 3V3</desc>
<path d="M6.7158 7.7380
L6.7158 6.9380
" />
<path d="M6.7158 6.9380
L6.9063 6.9380
" />
<path d="M6.9063 6.9380
L7.0206 6.9761
" />
<path d="M7.0206 6.9761
L7.0968 7.0523
" />
<path d="M7.0968 7.0523
L7.1349 7.1285
" />
<path d="M7.1349 7.1285
L7.1730 7.2809
" />
<path d="M7.1730 7.2809
L7.1730 7.3952
" />
<path d="M7.1730 7.3952
L7.1349 7.5475
" />
<path d="M7.1349 7.5475
L7.0968 7.6237
" />
<path d="M7.0968 7.6237
L7.0206 7.6999
" />
<path d="M7.0206 7.6999
L6.9063 7.7380
" />
<path d="M6.9063 7.7380
L6.7158 7.7380
" />
<path d="M7.5158 7.7380
L7.5158 6.9380
" />
<path d="M7.5158 6.9380
L7.9730 7.7380
" />
<path d="M7.9730 7.7380
L7.9730 6.9380
" />
<path d="M8.8111 7.6618
L8.7730 7.6999
" />
<path d="M8.7730 7.6999
L8.6587 7.7380
" />
<path d="M8.6587 7.7380
L8.5825 7.7380
" />
<path d="M8.5825 7.7380
L8.4682 7.6999
" />
<path d="M8.4682 7.6999
L8.3920 7.6237
" />
<path d="M8.3920 7.6237
L8.3539 7.5475
" />
<path d="M8.3539 7.5475
L8.3158 7.3952
" />
<path d="M8.3158 7.3952
L8.3158 7.2809
" />
<path d="M8.3158 7.2809
L8.3539 7.1285
" />
<path d="M8.3539 7.1285
L8.3920 7.0523
" />
<path d="M8.3920 7.0523
L8.4682 6.9761
" />
<path d="M8.4682 6.9761
L8.5825 6.9380
" />
<path d="M8.5825 6.9380
L8.6587 6.9380
" />
<path d="M8.6587 6.9380
L8.7730 6.9761
" />
<path d="M8.7730 6.9761
L8.8111 7.0142
" />
<path d="M9.7634 7.7380
L9.7634 6.9380
" />
<path d="M9.7634 6.9380
L10.0682 6.9380
" />
<path d="M10.0682 6.9380
L10.1444 6.9761
" />
<path d="M10.1444 6.9761
L10.1825 7.0142
" />
<path d="M10.1825 7.0142
L10.2206 7.0904
" />
<path d="M10.2206 7.0904
L10.2206 7.2047
" />
<path d="M10.2206 7.2047
L10.1825 7.2809
" />
<path d="M10.1825 7.2809
L10.1444 7.3190
" />
<path d="M10.1444 7.3190
L10.0682 7.3571
" />
<path d="M10.0682 7.3571
L9.7634 7.3571
" />
<path d="M10.5253 7.0142
L10.5634 6.9761
" />
<path d="M10.5634 6.9761
L10.6396 6.9380
" />
<path d="M10.6396 6.9380
L10.8301 6.9380
" />
<path d="M10.8301 6.9380
L10.9063 6.9761
" />
<path d="M10.9063 6.9761
L10.9444 7.0142
" />
<path d="M10.9444 7.0142
L10.9825 7.0904
" />
<path d="M10.9825 7.0904
L10.9825 7.1666
" />
<path d="M10.9825 7.1666
L10.9444 7.2809
" />
<path d="M10.9444 7.2809
L10.4872 7.7380
" />
<path d="M10.4872 7.7380
L10.9825 7.7380
" />
<path d="M11.9349 7.7380
L11.9349 6.9380
" />
<path d="M12.4682 6.9380
L12.6206 6.9380
" />
<path d="M12.6206 6.9380
L12.6968 6.9761
" />
<path d="M12.6968 6.9761
L12.7730 7.0523
" />
<path d="M12.7730 7.0523
L12.8111 7.2047
" />
<path d="M12.8111 7.2047
L12.8111 7.4714
" />
<path d="M12.8111 7.4714
L12.7730 7.6237
" />
<path d="M12.7730 7.6237
L12.6968 7.6999
" />
<path d="M12.6968 7.6999
L12.6206 7.7380
" />
<path d="M12.6206 7.7380
L12.4682 7.7380
" />
<path d="M12.4682 7.7380
L12.3920 7.6999
" />
<path d="M12.3920 7.6999
L12.3158 7.6237
" />
<path d="M12.3158 7.6237
L12.2777 7.4714
" />
<path d="M12.2777 7.4714
L12.2777 7.2047
" />
<path d="M12.2777 7.2047
L12.3158 7.0523
" />
<path d="M12.3158 7.0523
L12.3920 6.9761
" />
<path d="M12.3920 6.9761
L12.4682 6.9380
" />
<path d="M13.6111 7.7380
L13.3444 7.3571
" />
<path d="M13.1539 7.7380
L13.1539 6.9380
" />
<path d="M13.1539 6.9380
L13.4587 6.9380
" />
<path d="M13.4587 6.9380
L13.5349 6.9761
" />
<path d="M13.5349 6.9761
L13.5730 7.0142
" />
<path d="M13.5730 7.0142
L13.6111 7.0904
" />
<path d="M13.6111 7.0904
L13.6111 7.2047
" />
<path d="M13.6111 7.2047
L13.5730 7.2809
" />
<path d="M13.5730 7.2809
L13.5349 7.3190
" />
<path d="M13.5349 7.3190
L13.4587 7.3571
" />
<path d="M13.4587 7.3571
L13.1539 7.3571
" />
<path d="M13.9539 7.3190
L14.2206 7.3190
" />
<path d="M14.3349 7.7380
L13.9539 7.7380
" />
<path d="M13.9539 7.7380
L13.9539 6.9380
" />
<path d="M13.9539 6.9380
L14.3349 6.9380
" />
<path d="M14.9444 7.3190
L14.6777 7.3190
" />
<path d="M14.6777 7.7380
L14.6777 6.9380
" />
<path d="M14.6777 6.9380
L15.0587 6.9380
" />
<path d="M16.5444 6.8999
L15.8587 7.9285
" />
<path d="M17.4206 7.7380
L17.4206 6.9380
" />
<path d="M17.4206 6.9380
L17.7253 6.9380
" />
<path d="M17.7253 6.9380
L17.8015 6.9761
" />
<path d="M17.8015 6.9761
L17.8396 7.0142
" />
<path d="M17.8396 7.0142
L17.8777 7.0904
" />
<path d="M17.8777 7.0904
L17.8777 7.2047
" />
<path d="M17.8777 7.2047
L17.8396 7.2809
" />
<path d="M17.8396 7.2809
L17.8015 7.3190
" />
<path d="M17.8015 7.3190
L17.7253 7.3571
" />
<path d="M17.7253 7.3571
L17.4206 7.3571
" />
<path d="M18.5634 7.2047
L18.5634 7.7380
" />
<path d="M18.3730 6.8999
L18.1825 7.4714
" />
<path d="M18.1825 7.4714
L18.6777 7.4714
" />
<path d="M19.5158 6.9380
L20.0111 6.9380
" />
<path d="M20.0111 6.9380
L19.7444 7.2428
" />
<path d="M19.7444 7.2428
L19.8587 7.2428
" />
<path d="M19.8587 7.2428
L19.9349 7.2809
" />
<path d="M19.9349 7.2809
L19.9730 7.3190
" />
<path d="M19.9730 7.3190
L20.0111 7.3952
" />
<path d="M20.0111 7.3952
L20.0111 7.5856
" />
<path d="M20.0111 7.5856
L19.9730 7.6618
" />
<path d="M19.9730 7.6618
L19.9349 7.6999
" />
<path d="M19.9349 7.6999
L19.8587 7.7380
" />
<path d="M19.8587 7.7380
L19.6301 7.7380
" />
<path d="M19.6301 7.7380
L19.5539 7.6999
" />
<path d="M19.5539 7.6999
L19.5158 7.6618
" />
<path d="M20.2396 6.9380
L20.5063 7.7380
" />
<path d="M20.5063 7.7380
L20.7730 6.9380
" />
<path d="M20.9634 6.9380
L21.4587 6.9380
" />
<path d="M21.4587 6.9380
L21.1920 7.2428
" />
<path d="M21.1920 7.2428
L21.3063 7.2428
" />
<path d="M21.3063 7.2428
L21.3825 7.2809
" />
<path d="M21.3825 7.2809
L21.4206 7.3190
" />
<path d="M21.4206 7.3190
L21.4587 7.3952
" />
<path d="M21.4587 7.3952
L21.4587 7.5856
" />
<path d="M21.4587 7.5856
L21.4206 7.6618
" />
<path d="M21.4206 7.6618
L21.3825 7.6999
" />
<path d="M21.3825 7.6999
L21.3063 7.7380
" />
<path d="M21.3063 7.7380
L21.0777 7.7380
" />
<path d="M21.0777 7.7380
L21.0015 7.6999
" />
<path d="M21.0015 7.6999
L20.9634 7.6618
" />
</g><text x="14.0682" y="3.4750"
textLength="14.4575" font-size="1.0667" lengthAdjust="spacingAndGlyphs"
text-anchor="middle" opacity="0" stroke-opacity="0">OPPOSING MATING VIEW</text>
<g class="stroked-text"><desc>OPPOSING MATING VIEW</desc>
<path d="M7.3063 2.6380
L7.4587 2.6380
" />
<path d="M7.4587 2.6380
L7.5349 2.6761
" />
<path d="M7.5349 2.6761
L7.6111 2.7523
" />
<path d="M7.6111 2.7523
L7.6492 2.9047
" />
<path d="M7.6492 2.9047
L7.6492 3.1714
" />
<path d="M7.6492 3.1714
L7.6111 3.3237
" />
<path d="M7.6111 3.3237
L7.5349 3.3999
" />
<path d="M7.5349 3.3999
L7.4587 3.4380
" />
<path d="M7.4587 3.4380
L7.3063 3.4380
" />
<path d="M7.3063 3.4380
L7.2301 3.3999
" />
<path d="M7.2301 3.3999
L7.1539 3.3237
" />
<path d="M7.1539 3.3237
L7.1158 3.1714
" />
<path d="M7.1158 3.1714
L7.1158 2.9047
" />
<path d="M7.1158 2.9047
L7.1539 2.7523
" />
<path d="M7.1539 2.7523
L7.2301 2.6761
" />
<path d="M7.2301 2.6761
L7.3063 2.6380
" />
<path d="M7.9920 3.4380
L7.9920 2.6380
" />
<path d="M7.9920 2.6380
L8.2968 2.6380
" />
<path d="M8.2968 2.6380
L8.3730 2.6761
" />
<path d="M8.3730 2.6761
L8.4111 2.7142
" />
<path d="M8.4111 2.7142
L8.4492 2.7904
" />
<path d="M8.4492 2.7904
L8.4492 2.9047
" />
<path d="M8.4492 2.9047
L8.4111 2.9809
" />
<path d="M8.4111 2.9809
L8.3730 3.0190
" />
<path d="M8.3730 3.0190
L8.2968 3.0571
" />
<path d="M8.2968 3.0571
L7.9920 3.0571
" />
<path d="M8.7920 3.4380
L8.7920 2.6380
" />
<path d="M8.7920 2.6380
L9.0968 2.6380
" />
<path d="M9.0968 2.6380
L9.1730 2.6761
" />
<path d="M9.1730 2.6761
L9.2111 2.7142
" />
<path d="M9.2111 2.7142
L9.2492 2.7904
" />
<path d="M9.2492 2.7904
L9.2492 2.9047
" />
<path d="M9.2492 2.9047
L9.2111 2.9809
" />
<path d="M9.2111 2.9809
L9.1730 3.0190
" />
<path d="M9.1730 3.0190
L9.0968 3.0571
" />
<path d="M9.0968 3.0571
L8.7920 3.0571
" />
<path d="M9.7444 2.6380
L9.8968 2.6380
" />
<path d="M9.8968 2.6380
L9.9730 2.6761
" />
<path d="M9.9730 2.6761
L10.0492 2.7523
" />
<path d="M10.0492 2.7523
L10.0872 2.9047
" />
<path d="M10.0872 2.9047
L10.0872 3.1714
" />
<path d="M10.0872 3.1714
L10.0492 3.3237
" />
<path d="M10.0492 3.3237
L9.9730 3.3999
" />
<path d="M9.9730 3.3999
L9.8968 3.4380
" />
<path d="M9.8968 3.4380
L9.7444 3.4380
" />
<path d="M9.7444 3.4380
L9.6682 3.3999
" />
<path d="M9.6682 3.3999
L9.5920 3.3237
" />
<path d="M9.5920 3.3237
L9.5539 3.1714
" />
<path d="M9.5539 3.1714
L9.5539 2.9047
" />
<path d="M9.5539 2.9047
L9.5920 2.7523
" />
<path d="M9.5920 2.7523
L9.6682 2.6761
" />
<path d="M9.6682 2.6761
L9.7444 2.6380
" />
<path d="M10.3920 3.3999
L10.5063 3.4380
" />
<path d="M10.5063 3.4380
L10.6968 3.4380
" />
<path d="M10.6968 3.4380
L10.7730 3.3999
" />
<path d="M10.7730 3.3999
L10.8111 3.3618
" />
<path d="M10.8111 3.3618
L10.8492 3.2856
" />
<path d="M10.8492 3.2856
L10.8492 3.2095
" />
<path d="M10.8492 3.2095
L10.8111 3.1333
" />
<path d="M10.8111 3.1333
L10.7730 3.0952
" />
<path d="M10.7730 3.0952
L10.6968 3.0571
" />
<path d="M10.6968 3.0571
L10.5444 3.0190
" />
<path d="M10.5444 3.0190
L10.4682 2.9809
" />
<path d="M10.4682 2.9809
L10.4301 2.9428
" />
<path d="M10.4301 2.9428
L10.3920 2.8666
" />
<path d="M10.3920 2.8666
L10.3920 2.7904
" />
<path d="M10.3920 2.7904
L10.4301 2.7142
" />
<path d="M10.4301 2.7142
L10.4682 2.6761
" />
<path d="M10.4682 2.6761
L10.5444 2.6380
" />
<path d="M10.5444 2.6380
L10.7349 2.6380
" />
<path d="M10.7349 2.6380
L10.8492 2.6761
" />
<path d="M11.1920 3.4380
L11.1920 2.6380
" />
<path d="M11.5730 3.4380
L11.5730 2.6380
" />
<path d="M11.5730 2.6380
L12.0301 3.4380
" />
<path d="M12.0301 3.4380
L12.0301 2.6380
" />
<path d="M12.8301 2.6761
L12.7539 2.6380
" />
<path d="M12.7539 2.6380
L12.6396 2.6380
" />
<path d="M12.6396 2.6380
L12.5253 2.6761
" />
<path d="M12.5253 2.6761
L12.4492 2.7523
" />
<path d="M12.4492 2.7523
L12.4111 2.8285
" />
<path d="M12.4111 2.8285
L12.3730 2.9809
" />
<path d="M12.3730 2.9809
L12.3730 3.0952
" />
<path d="M12.3730 3.0952
L12.4111 3.2475
" />
<path d="M12.4111 3.2475
L12.4492 3.3237
" />
<path d="M12.4492 3.3237
L12.5253 3.3999
" />
<path d="M12.5253 3.3999
L12.6396 3.4380
" />
<path d="M12.6396 3.4380
L12.7158 3.4380
" />
<path d="M12.7158 3.4380
L12.8301 3.3999
" />
<path d="M12.8301 3.3999
L12.8682 3.3618
" />
<path d="M12.8682 3.3618
L12.8682 3.0952
" />
<path d="M12.8682 3.0952
L12.7158 3.0952
" />
<path d="M13.8206 3.4380
L13.8206 2.6380
" />
<path d="M13.8206 2.6380
L14.0872 3.2095
" />
<path d="M14.0872 3.2095
L14.3539 2.6380
" />
<path d="M14.3539 2.6380
L14.3539 3.4380
" />
<path d="M14.6968 3.2095
L15.0777 3.2095
" />
<path d="M14.6206 3.4380
L14.8872 2.6380
" />
<path d="M14.8872 2.6380
L15.1539 3.4380
" />
<path d="M15.3063 2.6380
L15.7634 2.6380
" />
<path d="M15.5349 3.4380
L15.5349 2.6380
" />
<path d="M16.0301 3.4380
L16.0301 2.6380
" />
<path d="M16.4111 3.4380
L16.4111 2.6380
" />
<path d="M16.4111 2.6380
L16.8682 3.4380
" />
<path d="M16.8682 3.4380
L16.8682 2.6380
" />
<path d="M17.6682 2.6761
L17.5920 2.6380
" />
<path d="M17.5920 2.6380
L17.4777 2.6380
" />
<path d="M17.4777 2.6380
L17.3634 2.6761
" />
<path d="M17.3634 2.6761
L17.2872 2.7523
" />
<path d="M17.2872 2.7523
L17.2492 2.8285
" />
<path d="M17.2492 2.8285
L17.2111 2.9809
" />
<path d="M17.2111 2.9809
L17.2111 3.0952
" />
<path d="M17.2111 3.0952
L17.2492 3.2475
" />
<path d="M17.2492 3.2475
L17.2872 3.3237
" />
<path d="M17.2872 3.3237
L17.3634 3.3999
" />
<path d="M17.3634 3.3999
L17.4777 3.4380
" />
<path d="M17.4777 3.4380
L17.5539 3.4380
" />
<path d="M17.5539 3.4380
L17.6682 3.3999
" />
<path d="M17.6682 3.3999
L17.7063 3.3618
" />
<path d="M17.7063 3.3618
L17.7063 3.0952
" />
<path d="M17.7063 3.0952
L17.5539 3.0952
" />
<path d="M18.5444 2.6380
L18.8111 3.4380
" />
<path d="M18.8111 3.4380
L19.0777 2.6380
" />
<path d="M19.3444 3.4380
L19.3444 2.6380
" />
<path d="M19.7253 3.0190
L19.9920 3.0190
" />
<path d="M20.1063 3.4380
L19.7253 3.4380
" />
<path d="M19.7253 3.4380
L19.7253 2.6380
" />
<path d="M19.7253 2.6380
L20.1063 2.6380
" />
<path d="M20.3730 2.6380
L20.5634 3.4380
" />
<path d="M20.5634 3.4380
L20.7158 2.8666
" />
<path d="M20.7158 2.8666
L20.8682 3.4380
" />
<path d="M20.8682 3.4380
L21.0587 2.6380
" />
</g><text x="14.0682" y="9.0250"
textLength="13.0480" font-size="1.0667" lengthAdjust="spacingAndGlyphs"
text-anchor="middle" opacity="0" stroke-opacity="0">DNC P5 5V / P8 VIN</text>
<g class="stroked-text"><desc>DNC P5 5V / P8 VIN</desc>
<path d="M7.8587 8.9880
L7.8587 8.1880
" />
<path d="M7.8587 8.1880
L8.0492 8.1880
" />
<path d="M8.0492 8.1880
L8.1634 8.2261
" />
<path d="M8.1634 8.2261
L8.2396 8.3023
" />
<path d="M8.2396 8.3023
L8.2777 8.3785
" />
<path d="M8.2777 8.3785
L8.3158 8.5309
" />
<path d="M8.3158 8.5309
L8.3158 8.6452
" />
<path d="M8.3158 8.6452
L8.2777 8.7975
" />
<path d="M8.2777 8.7975
L8.2396 8.8737
" />
<path d="M8.2396 8.8737
L8.1634 8.9499
" />
<path d="M8.1634 8.9499
L8.0492 8.9880
" />
<path d="M8.0492 8.9880
L7.8587 8.9880
" />
<path d="M8.6587 8.9880
L8.6587 8.1880
" />
<path d="M8.6587 8.1880
L9.1158 8.9880
" />
<path d="M9.1158 8.9880
L9.1158 8.1880
" />
<path d="M9.9539 8.9118
L9.9158 8.9499
" />
<path d="M9.9158 8.9499
L9.8015 8.9880
" />
<path d="M9.8015 8.9880
L9.7253 8.9880
" />
<path d="M9.7253 8.9880
L9.6111 8.9499
" />
<path d="M9.6111 8.9499
L9.5349 8.8737
" />
<path d="M9.5349 8.8737
L9.4968 8.7975
" />
<path d="M9.4968 8.7975
L9.4587 8.6452
" />
<path d="M9.4587 8.6452
L9.4587 8.5309
" />
<path d="M9.4587 8.5309
L9.4968 8.3785
" />
<path d="M9.4968 8.3785
L9.5349 8.3023
" />
<path d="M9.5349 8.3023
L9.6111 8.2261
" />
<path d="M9.6111 8.2261
L9.7253 8.1880
" />
<path d="M9.7253 8.1880
L9.8015 8.1880
" />
<path d="M9.8015 8.1880
L9.9158 8.2261
" />
<path d="M9.9158 8.2261
L9.9539 8.2642
" />
<path d="M10.9063 8.9880
L10.9063 8.1880
" />
<path d="M10.9063 8.1880
L11.2111 8.1880
" />
<path d="M11.2111 8.1880
L11.2872 8.2261
" />
<path d="M11.2872 8.2261
L11.3253 8.2642
" />
<path d="M11.3253 8.2642
L11.3634 8.3404
" />
<path d="M11.3634 8.3404
L11.3634 8.4547
" />
<path d="M11.3634 8.4547
L11.3253 8.5309
" />
<path d="M11.3253 8.5309
L11.2872 8.5690
" />
<path d="M11.2872 8.5690
L11.2111 8.6071
" />
<path d="M11.2111 8.6071
L10.9063 8.6071
" />
<path d="M12.0872 8.1880
L11.7063 8.1880
" />
<path d="M11.7063 8.1880
L11.6682 8.5690
" />
<path d="M11.6682 8.5690
L11.7063 8.5309
" />
<path d="M11.7063 8.5309
L11.7825 8.4928
" />
<path d="M11.7825 8.4928
L11.9730 8.4928
" />
<path d="M11.9730 8.4928
L12.0492 8.5309
" />
<path d="M12.0492 8.5309
L12.0872 8.5690
" />
<path d="M12.0872 8.5690
L12.1253 8.6452
" />
<path d="M12.1253 8.6452
L12.1253 8.8356
" />
<path d="M12.1253 8.8356
L12.0872 8.9118
" />
<path d="M12.0872 8.9118
L12.0492 8.9499
" />
<path d="M12.0492 8.9499
L11.9730 8.9880
" />
<path d="M11.9730 8.9880
L11.7825 8.9880
" />
<path d="M11.7825 8.9880
L11.7063 8.9499
" />
<path d="M11.7063 8.9499
L11.6682 8.9118
" />
<path d="M13.4587 8.1880
L13.0777 8.1880
" />
<path d="M13.0777 8.1880
L13.0396 8.5690
" />
<path d="M13.0396 8.5690
L13.0777 8.5309
" />
<path d="M13.0777 8.5309
L13.1539 8.4928
" />
<path d="M13.1539 8.4928
L13.3444 8.4928
" />
<path d="M13.3444 8.4928
L13.4206 8.5309
" />
<path d="M13.4206 8.5309
L13.4587 8.5690
" />
<path d="M13.4587 8.5690
L13.4968 8.6452
" />
<path d="M13.4968 8.6452
L13.4968 8.8356
" />
<path d="M13.4968 8.8356
L13.4587 8.9118
" />
<path d="M13.4587 8.9118
L13.4206 8.9499
" />
<path d="M13.4206 8.9499
L13.3444 8.9880
" />
<path d="M13.3444 8.9880
L13.1539 8.9880
" />
<path d="M13.1539 8.9880
L13.0777 8.9499
" />
<path d="M13.0777 8.9499
L13.0396 8.9118
" />
<path d="M13.7253 8.1880
L13.9920 8.9880
" />
<path d="M13.9920 8.9880
L14.2587 8.1880
" />
<path d="M15.7063 8.1499
L15.0206 9.1785
" />
<path d="M16.5825 8.9880
L16.5825 8.1880
" />
<path d="M16.5825 8.1880
L16.8872 8.1880
" />
<path d="M16.8872 8.1880
L16.9634 8.2261
" />
<path d="M16.9634 8.2261
L17.0015 8.2642
" />
<path d="M17.0015 8.2642
L17.0396 8.3404
" />
<path d="M17.0396 8.3404
L17.0396 8.4547
" />
<path d="M17.0396 8.4547
L17.0015 8.5309
" />
<path d="M17.0015 8.5309
L16.9634 8.5690
" />
<path d="M16.9634 8.5690
L16.8872 8.6071
" />
<path d="M16.8872 8.6071
L16.5825 8.6071
" />
<path d="M17.4968 8.5309
L17.4206 8.4928
" />
<path d="M17.4206 8.4928
L17.3825 8.4547
" />
<path d="M17.3825 8.4547
L17.3444 8.3785
" />
<path d="M17.3444 8.3785
L17.3444 8.3404
" />
<path d="M17.3444 8.3404
L17.3825 8.2642
" />
<path d="M17.3825 8.2642
L17.4206 8.2261
" />
<path d="M17.4206 8.2261
L17.4968 8.1880
" />
<path d="M17.4968 8.1880
L17.6492 8.1880
" />
<path d="M17.6492 8.1880
L17.7253 8.2261
" />
<path d="M17.7253 8.2261
L17.7634 8.2642
" />
<path d="M17.7634 8.2642
L17.8015 8.3404
" />
<path d="M17.8015 8.3404
L17.8015 8.3785
" />
<path d="M17.8015 8.3785
L17.7634 8.4547
" />
<path d="M17.7634 8.4547
L17.7253 8.4928
" />
<path d="M17.7253 8.4928
L17.6492 8.5309
" />
<path d="M17.6492 8.5309
L17.4968 8.5309
" />
<path d="M17.4968 8.5309
L17.4206 8.5690
" />
<path d="M17.4206 8.5690
L17.3825 8.6071
" />
<path d="M17.3825 8.6071
L17.3444 8.6833
" />
<path d="M17.3444 8.6833
L17.3444 8.8356
" />
<path d="M17.3444 8.8356
L17.3825 8.9118
" />
<path d="M17.3825 8.9118
L17.4206 8.9499
" />
<path d="M17.4206 8.9499
L17.4968 8.9880
" />
<path d="M17.4968 8.9880
L17.6492 8.9880
" />
<path d="M17.6492 8.9880
L17.7253 8.9499
" />
<path d="M17.7253 8.9499
L17.7634 8.9118
" />
<path d="M17.7634 8.9118
L17.8015 8.8356
" />
<path d="M17.8015 8.8356
L17.8015 8.6833
" />
<path d="M17.8015 8.6833
L17.7634 8.6071
" />
<path d="M17.7634 8.6071
L17.7253 8.5690
" />
<path d="M17.7253 8.5690
L17.6492 8.5309
" />
<path d="M18.6396 8.1880
L18.9063 8.9880
" />
<path d="M18.9063 8.9880
L19.1730 8.1880
" />
<path d="M19.4396 8.9880
L19.4396 8.1880
" />
<path d="M19.8206 8.9880
L19.8206 8.1880
" />
<path d="M19.8206 8.1880
L20.2777 8.9880
" />
<path d="M20.2777 8.9880
L20.2777 8.1880
" />
</g><text x="14.0682" y="11.5250"
textLength="19.6004" font-size="1.0667" lengthAdjust="spacingAndGlyphs"
text-anchor="middle" opacity="0" stroke-opacity="0">DRAFT DEVELOPMENT HARDWARE</text>
<g class="stroked-text"><desc>DRAFT DEVELOPMENT HARDWARE</desc>
<path d="M4.5825 11.4880
L4.5825 10.6880
" />
<path d="M4.5825 10.6880
L4.7730 10.6880
" />
<path d="M4.7730 10.6880
L4.8872 10.7261
" />
<path d="M4.8872 10.7261
L4.9634 10.8023
" />
<path d="M4.9634 10.8023
L5.0015 10.8785
" />
<path d="M5.0015 10.8785
L5.0396 11.0309
" />
<path d="M5.0396 11.0309
L5.0396 11.1452
" />
<path d="M5.0396 11.1452
L5.0015 11.2975
" />
<path d="M5.0015 11.2975
L4.9634 11.3737
" />
<path d="M4.9634 11.3737
L4.8872 11.4499
" />
<path d="M4.8872 11.4499
L4.7730 11.4880
" />
<path d="M4.7730 11.4880
L4.5825 11.4880
" />
<path d="M5.8396 11.4880
L5.5730 11.1071
" />
<path d="M5.3825 11.4880
L5.3825 10.6880
" />
<path d="M5.3825 10.6880
L5.6872 10.6880
" />
<path d="M5.6872 10.6880
L5.7634 10.7261
" />
<path d="M5.7634 10.7261
L5.8015 10.7642
" />
<path d="M5.8015 10.7642
L5.8396 10.8404
" />
<path d="M5.8396 10.8404
L5.8396 10.9547
" />
<path d="M5.8396 10.9547
L5.8015 11.0309
" />
<path d="M5.8015 11.0309
L5.7634 11.0690
" />
<path d="M5.7634 11.0690
L5.6872 11.1071
" />
<path d="M5.6872 11.1071
L5.3825 11.1071
" />
<path d="M6.1444 11.2595
L6.5253 11.2595
" />
<path d="M6.0682 11.4880
L6.3349 10.6880
" />
<path d="M6.3349 10.6880
L6.6015 11.4880
" />
<path d="M7.1349 11.0690
L6.8682 11.0690
" />
<path d="M6.8682 11.4880
L6.8682 10.6880
" />
<path d="M6.8682 10.6880
L7.2492 10.6880
" />
<path d="M7.4396 10.6880
L7.8968 10.6880
" />
<path d="M7.6682 11.4880
L7.6682 10.6880
" />
<path d="M8.7730 11.4880
L8.7730 10.6880
" />
<path d="M8.7730 10.6880
L8.9634 10.6880
" />
<path d="M8.9634 10.6880
L9.0777 10.7261
" />
<path d="M9.0777 10.7261
L9.1539 10.8023
" />
<path d="M9.1539 10.8023
L9.1920 10.8785
" />
<path d="M9.1920 10.8785
L9.2301 11.0309
" />
<path d="M9.2301 11.0309
L9.2301 11.1452
" />
<path d="M9.2301 11.1452
L9.1920 11.2975
" />
<path d="M9.1920 11.2975
L9.1539 11.3737
" />
<path d="M9.1539 11.3737
L9.0777 11.4499
" />
<path d="M9.0777 11.4499
L8.9634 11.4880
" />
<path d="M8.9634 11.4880
L8.7730 11.4880
" />
<path d="M9.5730 11.0690
L9.8396 11.0690
" />
<path d="M9.9539 11.4880
L9.5730 11.4880
" />
<path d="M9.5730 11.4880
L9.5730 10.6880
" />
<path d="M9.5730 10.6880
L9.9539 10.6880
" />
<path d="M10.1825 10.6880
L10.4492 11.4880
" />
<path d="M10.4492 11.4880
L10.7158 10.6880
" />
<path d="M10.9825 11.0690
L11.2492 11.0690
" />
<path d="M11.3634 11.4880
L10.9825 11.4880
" />
<path d="M10.9825 11.4880
L10.9825 10.6880
" />
<path d="M10.9825 10.6880
L11.3634 10.6880
" />
<path d="M12.0872 11.4880
L11.7063 11.4880
" />
<path d="M11.7063 11.4880
L11.7063 10.6880
" />
<path d="M12.5063 10.6880
L12.6587 10.6880
" />
<path d="M12.6587 10.6880
L12.7349 10.7261
" />
<path d="M12.7349 10.7261
L12.8111 10.8023
" />
<path d="M12.8111 10.8023
L12.8492 10.9547
" />
<path d="M12.8492 10.9547
L12.8492 11.2214
" />
<path d="M12.8492 11.2214
L12.8111 11.3737
" />
<path d="M12.8111 11.3737
L12.7349 11.4499
" />
<path d="M12.7349 11.4499
L12.6587 11.4880
" />
<path d="M12.6587 11.4880
L12.5063 11.4880
" />
<path d="M12.5063 11.4880
L12.4301 11.4499
" />
<path d="M12.4301 11.4499
L12.3539 11.3737
" />
<path d="M12.3539 11.3737
L12.3158 11.2214
" />
<path d="M12.3158 11.2214
L12.3158 10.9547
" />
<path d="M12.3158 10.9547
L12.3539 10.8023
" />
<path d="M12.3539 10.8023
L12.4301 10.7261
" />
<path d="M12.4301 10.7261
L12.5063 10.6880
" />
<path d="M13.1920 11.4880
L13.1920 10.6880
" />
<path d="M13.1920 10.6880
L13.4968 10.6880
" />
<path d="M13.4968 10.6880
L13.5730 10.7261
" />
<path d="M13.5730 10.7261
L13.6111 10.7642
" />
<path d="M13.6111 10.7642
L13.6492 10.8404
" />
<path d="M13.6492 10.8404
L13.6492 10.9547
" />
<path d="M13.6492 10.9547
L13.6111 11.0309
" />
<path d="M13.6111 11.0309
L13.5730 11.0690
" />
<path d="M13.5730 11.0690
L13.4968 11.1071
" />
<path d="M13.4968 11.1071
L13.1920 11.1071
" />
<path d="M13.9920 11.4880
L13.9920 10.6880
" />
<path d="M13.9920 10.6880
L14.2587 11.2595
" />
<path d="M14.2587 11.2595
L14.5253 10.6880
" />
<path d="M14.5253 10.6880
L14.5253 11.4880
" />
<path d="M14.9063 11.0690
L15.1730 11.0690
" />
<path d="M15.2872 11.4880
L14.9063 11.4880
" />
<path d="M14.9063 11.4880
L14.9063 10.6880
" />
<path d="M14.9063 10.6880
L15.2872 10.6880
" />
<path d="M15.6301 11.4880
L15.6301 10.6880
" />
<path d="M15.6301 10.6880
L16.0872 11.4880
" />
<path d="M16.0872 11.4880
L16.0872 10.6880
" />
<path d="M16.3539 10.6880
L16.8111 10.6880
" />
<path d="M16.5825 11.4880
L16.5825 10.6880
" />
<path d="M17.6872 11.4880
L17.6872 10.6880
" />
<path d="M17.6872 11.0690
L18.1444 11.0690
" />
<path d="M18.1444 11.4880
L18.1444 10.6880
" />
<path d="M18.4872 11.2595
L18.8682 11.2595
" />
<path d="M18.4111 11.4880
L18.6777 10.6880
" />
<path d="M18.6777 10.6880
L18.9444 11.4880
" />
<path d="M19.6682 11.4880
L19.4015 11.1071
" />
<path d="M19.2111 11.4880
L19.2111 10.6880
" />
<path d="M19.2111 10.6880
L19.5158 10.6880
" />
<path d="M19.5158 10.6880
L19.5920 10.7261
" />
<path d="M19.5920 10.7261
L19.6301 10.7642
" />
<path d="M19.6301 10.7642
L19.6682 10.8404
" />
<path d="M19.6682 10.8404
L19.6682 10.9547
" />
<path d="M19.6682 10.9547
L19.6301 11.0309
" />
<path d="M19.6301 11.0309
L19.5920 11.0690
" />
<path d="M19.5920 11.0690
L19.5158 11.1071
" />
<path d="M19.5158 11.1071
L19.2111 11.1071
" />
<path d="M20.0111 11.4880
L20.0111 10.6880
" />
<path d="M20.0111 10.6880
L20.2015 10.6880
" />
<path d="M20.2015 10.6880
L20.3158 10.7261
" />
<path d="M20.3158 10.7261
L20.3920 10.8023
" />
<path d="M20.3920 10.8023
L20.4301 10.8785
" />
<path d="M20.4301 10.8785
L20.4682 11.0309
" />
<path d="M20.4682 11.0309
L20.4682 11.1452
" />
<path d="M20.4682 11.1452
L20.4301 11.2975
" />
<path d="M20.4301 11.2975
L20.3920 11.3737
" />
<path d="M20.3920 11.3737
L20.3158 11.4499
" />
<path d="M20.3158 11.4499
L20.2015 11.4880
" />
<path d="M20.2015 11.4880
L20.0111 11.4880
" />
<path d="M20.7349 10.6880
L20.9253 11.4880
" />
<path d="M20.9253 11.4880
L21.0777 10.9166
" />
<path d="M21.0777 10.9166
L21.2301 11.4880
" />
<path d="M21.2301 11.4880
L21.4206 10.6880
" />
<path d="M21.6872 11.2595
L22.0682 11.2595
" />
<path d="M21.6111 11.4880
L21.8777 10.6880
" />
<path d="M21.8777 10.6880
L22.1444 11.4880
" />
<path d="M22.8682 11.4880
L22.6015 11.1071
" />
<path d="M22.4111 11.4880
L22.4111 10.6880
" />
<path d="M22.4111 10.6880
L22.7158 10.6880
" />
<path d="M22.7158 10.6880
L22.7920 10.7261
" />
<path d="M22.7920 10.7261
L22.8301 10.7642
" />
<path d="M22.8301 10.7642
L22.8682 10.8404
" />
<path d="M22.8682 10.8404
L22.8682 10.9547
" />
<path d="M22.8682 10.9547
L22.8301 11.0309
" />
<path d="M22.8301 11.0309
L22.7920 11.0690
" />
<path d="M22.7920 11.0690
L22.7158 11.1071
" />
<path d="M22.7158 11.1071
L22.4111 11.1071
" />
<path d="M23.2111 11.0690
L23.4777 11.0690
" />
<path d="M23.5920 11.4880
L23.2111 11.4880
" />
<path d="M23.2111 11.4880
L23.2111 10.6880
" />
<path d="M23.2111 10.6880
L23.5920 10.6880
" />
</g><text x="14.0682" y="23.4750"
textLength="13.8099" font-size="1.0667" lengthAdjust="spacingAndGlyphs"
text-anchor="middle" opacity="0" stroke-opacity="0">PIGTAIL STRAIN RELIEF</text>
<g class="stroked-text"><desc>PIGTAIL STRAIN RELIEF</desc>
<path d="M7.4777 23.4380
L7.4777 22.6380
" />
<path d="M7.4777 22.6380
L7.7825 22.6380
" />
<path d="M7.7825 22.6380
L7.8587 22.6761
" />
<path d="M7.8587 22.6761
L7.8968 22.7142
" />
<path d="M7.8968 22.7142
L7.9349 22.7904
" />
<path d="M7.9349 22.7904
L7.9349 22.9047
" />
<path d="M7.9349 22.9047
L7.8968 22.9809
" />
<path d="M7.8968 22.9809
L7.8587 23.0190
" />
<path d="M7.8587 23.0190
L7.7825 23.0571
" />
<path d="M7.7825 23.0571
L7.4777 23.0571
" />
<path d="M8.2777 23.4380
L8.2777 22.6380
" />
<path d="M9.0777 22.6761
L9.0015 22.6380
" />
<path d="M9.0015 22.6380
L8.8872 22.6380
" />
<path d="M8.8872 22.6380
L8.7730 22.6761
" />
<path d="M8.7730 22.6761
L8.6968 22.7523
" />
<path d="M8.6968 22.7523
L8.6587 22.8285
" />
<path d="M8.6587 22.8285
L8.6206 22.9809
" />
<path d="M8.6206 22.9809
L8.6206 23.0952
" />
<path d="M8.6206 23.0952
L8.6587 23.2475
" />
<path d="M8.6587 23.2475
L8.6968 23.3237
" />
<path d="M8.6968 23.3237
L8.7730 23.3999
" />
<path d="M8.7730 23.3999
L8.8872 23.4380
" />
<path d="M8.8872 23.4380
L8.9634 23.4380
" />
<path d="M8.9634 23.4380
L9.0777 23.3999
" />
<path d="M9.0777 23.3999
L9.1158 23.3618
" />
<path d="M9.1158 23.3618
L9.1158 23.0952
" />
<path d="M9.1158 23.0952
L8.9634 23.0952
" />
<path d="M9.3444 22.6380
L9.8015 22.6380
" />
<path d="M9.5730 23.4380
L9.5730 22.6380
" />
<path d="M10.0301 23.2095
L10.4111 23.2095
" />
<path d="M9.9539 23.4380
L10.2206 22.6380
" />
<path d="M10.2206 22.6380
L10.4872 23.4380
" />
<path d="M10.7539 23.4380
L10.7539 22.6380
" />
<path d="M11.5158 23.4380
L11.1349 23.4380
" />
<path d="M11.1349 23.4380
L11.1349 22.6380
" />
<path d="M12.3539 23.3999
L12.4682 23.4380
" />
<path d="M12.4682 23.4380
L12.6587 23.4380
" />
<path d="M12.6587 23.4380
L12.7349 23.3999
" />
<path d="M12.7349 23.3999
L12.7730 23.3618
" />
<path d="M12.7730 23.3618
L12.8111 23.2856
" />
<path d="M12.8111 23.2856
L12.8111 23.2095
" />
<path d="M12.8111 23.2095
L12.7730 23.1333
" />
<path d="M12.7730 23.1333
L12.7349 23.0952
" />
<path d="M12.7349 23.0952
L12.6587 23.0571
" />
<path d="M12.6587 23.0571
L12.5063 23.0190
" />
<path d="M12.5063 23.0190
L12.4301 22.9809
" />
<path d="M12.4301 22.9809
L12.3920 22.9428
" />
<path d="M12.3920 22.9428
L12.3539 22.8666
" />
<path d="M12.3539 22.8666
L12.3539 22.7904
" />
<path d="M12.3539 22.7904
L12.3920 22.7142
" />
<path d="M12.3920 22.7142
L12.4301 22.6761
" />
<path d="M12.4301 22.6761
L12.5063 22.6380
" />
<path d="M12.5063 22.6380
L12.6968 22.6380
" />
<path d="M12.6968 22.6380
L12.8111 22.6761
" />
<path d="M13.0396 22.6380
L13.4968 22.6380
" />
<path d="M13.2682 23.4380
L13.2682 22.6380
" />
<path d="M14.2206 23.4380
L13.9539 23.0571
" />
<path d="M13.7634 23.4380
L13.7634 22.6380
" />
<path d="M13.7634 22.6380
L14.0682 22.6380
" />
<path d="M14.0682 22.6380
L14.1444 22.6761
" />
<path d="M14.1444 22.6761
L14.1825 22.7142
" />
<path d="M14.1825 22.7142
L14.2206 22.7904
" />
<path d="M14.2206 22.7904
L14.2206 22.9047
" />
<path d="M14.2206 22.9047
L14.1825 22.9809
" />
<path d="M14.1825 22.9809
L14.1444 23.0190
" />
<path d="M14.1444 23.0190
L14.0682 23.0571
" />
<path d="M14.0682 23.0571
L13.7634 23.0571
" />
<path d="M14.5253 23.2095
L14.9063 23.2095
" />
<path d="M14.4492 23.4380
L14.7158 22.6380
" />
<path d="M14.7158 22.6380
L14.9825 23.4380
" />
<path d="M15.2492 23.4380
L15.2492 22.6380
" />
<path d="M15.6301 23.4380
L15.6301 22.6380
" />
<path d="M15.6301 22.6380
L16.0872 23.4380
" />
<path d="M16.0872 23.4380
L16.0872 22.6380
" />
<path d="M17.5349 23.4380
L17.2682 23.0571
" />
<path d="M17.0777 23.4380
L17.0777 22.6380
" />
<path d="M17.0777 22.6380
L17.3825 22.6380
" />
<path d="M17.3825 22.6380
L17.4587 22.6761
" />
<path d="M17.4587 22.6761
L17.4968 22.7142
" />
<path d="M17.4968 22.7142
L17.5349 22.7904
" />
<path d="M17.5349 22.7904
L17.5349 22.9047
" />
<path d="M17.5349 22.9047
L17.4968 22.9809
" />
<path d="M17.4968 22.9809
L17.4587 23.0190
" />
<path d="M17.4587 23.0190
L17.3825 23.0571
" />
<path d="M17.3825 23.0571
L17.0777 23.0571
" />
<path d="M17.8777 23.0190
L18.1444 23.0190
" />
<path d="M18.2587 23.4380
L17.8777 23.4380
" />
<path d="M17.8777 23.4380
L17.8777 22.6380
" />
<path d="M17.8777 22.6380
L18.2587 22.6380
" />
<path d="M18.9825 23.4380
L18.6015 23.4380
" />
<path d="M18.6015 23.4380
L18.6015 22.6380
" />
<path d="M19.2492 23.4380
L19.2492 22.6380
" />
<path d="M19.6301 23.0190
L19.8968 23.0190
" />
<path d="M20.0111 23.4380
L19.6301 23.4380
" />
<path d="M19.6301 23.4380
L19.6301 22.6380
" />
<path d="M19.6301 22.6380
L20.0111 22.6380
" />
<path d="M20.6206 23.0190
L20.3539 23.0190
" />
<path d="M20.3539 23.4380
L20.3539 22.6380
" />
<path d="M20.3539 22.6380
L20.7349 22.6380
" />
</g><text x="14.0682" y="12.7750"
textLength="16.6670" font-size="1.0667" lengthAdjust="spacingAndGlyphs"
text-anchor="middle" opacity="0" stroke-opacity="0">NOT PHYSICALLY QUALIFIED</text>
<g class="stroked-text"><desc>NOT PHYSICALLY QUALIFIED</desc>
<path d="M6.0492 12.7380
L6.0492 11.9380
" />
<path d="M6.0492 11.9380
L6.5063 12.7380
" />
<path d="M6.5063 12.7380
L6.5063 11.9380
" />
<path d="M7.0396 11.9380
L7.1920 11.9380
" />
<path d="M7.1920 11.9380
L7.2682 11.9761
" />
<path d="M7.2682 11.9761
L7.3444 12.0523
" />
<path d="M7.3444 12.0523
L7.3825 12.2047
" />
<path d="M7.3825 12.2047
L7.3825 12.4714
" />
<path d="M7.3825 12.4714
L7.3444 12.6237
" />
<path d="M7.3444 12.6237
L7.2682 12.6999
" />
<path d="M7.2682 12.6999
L7.1920 12.7380
" />
<path d="M7.1920 12.7380
L7.0396 12.7380
" />
<path d="M7.0396 12.7380
L6.9634 12.6999
" />
<path d="M6.9634 12.6999
L6.8872 12.6237
" />
<path d="M6.8872 12.6237
L6.8492 12.4714
" />
<path d="M6.8492 12.4714
L6.8492 12.2047
" />
<path d="M6.8492 12.2047
L6.8872 12.0523
" />
<path d="M6.8872 12.0523
L6.9634 11.9761
" />
<path d="M6.9634 11.9761
L7.0396 11.9380
" />
<path d="M7.6111 11.9380
L8.0682 11.9380
" />
<path d="M7.8396 12.7380
L7.8396 11.9380
" />
<path d="M8.9444 12.7380
L8.9444 11.9380
" />
<path d="M8.9444 11.9380
L9.2492 11.9380
" />
<path d="M9.2492 11.9380
L9.3253 11.9761
" />
<path d="M9.3253 11.9761
L9.3634 12.0142
" />
<path d="M9.3634 12.0142
L9.4015 12.0904
" />
<path d="M9.4015 12.0904
L9.4015 12.2047
" />
<path d="M9.4015 12.2047
L9.3634 12.2809
" />
<path d="M9.3634 12.2809
L9.3253 12.3190
" />
<path d="M9.3253 12.3190
L9.2492 12.3571
" />
<path d="M9.2492 12.3571
L8.9444 12.3571
" />
<path d="M9.7444 12.7380
L9.7444 11.9380
" />
<path d="M9.7444 12.3190
L10.2015 12.3190
" />
<path d="M10.2015 12.7380
L10.2015 11.9380
" />
<path d="M10.7349 12.3571
L10.7349 12.7380
" />
<path d="M10.4682 11.9380
L10.7349 12.3571
" />
<path d="M10.7349 12.3571
L11.0015 11.9380
" />
<path d="M11.2301 12.6999
L11.3444 12.7380
" />
<path d="M11.3444 12.7380
L11.5349 12.7380
" />
<path d="M11.5349 12.7380
L11.6111 12.6999
" />
<path d="M11.6111 12.6999
L11.6492 12.6618
" />
<path d="M11.6492 12.6618
L11.6872 12.5856
" />
<path d="M11.6872 12.5856
L11.6872 12.5095
" />
<path d="M11.6872 12.5095
L11.6492 12.4333
" />
<path d="M11.6492 12.4333
L11.6111 12.3952
" />
<path d="M11.6111 12.3952
L11.5349 12.3571
" />
<path d="M11.5349 12.3571
L11.3825 12.3190
" />
<path d="M11.3825 12.3190
L11.3063 12.2809
" />
<path d="M11.3063 12.2809
L11.2682 12.2428
" />
<path d="M11.2682 12.2428
L11.2301 12.1666
" />
<path d="M11.2301 12.1666
L11.2301 12.0904
" />
<path d="M11.2301 12.0904
L11.2682 12.0142
" />
<path d="M11.2682 12.0142
L11.3063 11.9761
" />
<path d="M11.3063 11.9761
L11.3825 11.9380
" />
<path d="M11.3825 11.9380
L11.5730 11.9380
" />
<path d="M11.5730 11.9380
L11.6872 11.9761
" />
<path d="M12.0301 12.7380
L12.0301 11.9380
" />
<path d="M12.8682 12.6618
L12.8301 12.6999
" />
<path d="M12.8301 12.6999
L12.7158 12.7380
" />
<path d="M12.7158 12.7380
L12.6396 12.7380
" />
<path d="M12.6396 12.7380
L12.5253 12.6999
" />
<path d="M12.5253 12.6999
L12.4492 12.6237
" />
<path d="M12.4492 12.6237
L12.4111 12.5475
" />
<path d="M12.4111 12.5475
L12.3730 12.3952
" />
<path d="M12.3730 12.3952
L12.3730 12.2809
" />
<path d="M12.3730 12.2809
L12.4111 12.1285
" />
<path d="M12.4111 12.1285
L12.4492 12.0523
" />
<path d="M12.4492 12.0523
L12.5253 11.9761
" />
<path d="M12.5253 11.9761
L12.6396 11.9380
" />
<path d="M12.6396 11.9380
L12.7158 11.9380
" />
<path d="M12.7158 11.9380
L12.8301 11.9761
" />
<path d="M12.8301 11.9761
L12.8682 12.0142
" />
<path d="M13.1730 12.5095
L13.5539 12.5095
" />
<path d="M13.0968 12.7380
L13.3634 11.9380
" />
<path d="M13.3634 11.9380
L13.6301 12.7380
" />
<path d="M14.2777 12.7380
L13.8968 12.7380
" />
<path d="M13.8968 12.7380
L13.8968 11.9380
" />
<path d="M14.9253 12.7380
L14.5444 12.7380
" />
<path d="M14.5444 12.7380
L14.5444 11.9380
" />
<path d="M15.3444 12.3571
L15.3444 12.7380
" />
<path d="M15.0777 11.9380
L15.3444 12.3571
" />
<path d="M15.3444 12.3571
L15.6111 11.9380
" />
<path d="M17.0206 12.8142
L16.9444 12.7761
" />
<path d="M16.9444 12.7761
L16.8682 12.6999
" />
<path d="M16.8682 12.6999
L16.7539 12.5856
" />
<path d="M16.7539 12.5856
L16.6777 12.5475
" />
<path d="M16.6777 12.5475
L16.6015 12.5475
" />
<path d="M16.6396 12.7380
L16.5634 12.6999
" />
<path d="M16.5634 12.6999
L16.4872 12.6237
" />
<path d="M16.4872 12.6237
L16.4492 12.4714
" />
<path d="M16.4492 12.4714
L16.4492 12.2047
" />
<path d="M16.4492 12.2047
L16.4872 12.0523
" />
<path d="M16.4872 12.0523
L16.5634 11.9761
" />
<path d="M16.5634 11.9761
L16.6396 11.9380
" />
<path d="M16.6396 11.9380
L16.7920 11.9380
" />
<path d="M16.7920 11.9380
L16.8682 11.9761
" />
<path d="M16.8682 11.9761
L16.9444 12.0523
" />
<path d="M16.9444 12.0523
L16.9825 12.2047
" />
<path d="M16.9825 12.2047
L16.9825 12.4714
" />
<path d="M16.9825 12.4714
L16.9444 12.6237
" />
<path d="M16.9444 12.6237
L16.8682 12.6999
" />
<path d="M16.8682 12.6999
L16.7920 12.7380
" />
<path d="M16.7920 12.7380
L16.6396 12.7380
" />
<path d="M17.3253 11.9380
L17.3253 12.5856
" />
<path d="M17.3253 12.5856
L17.3634 12.6618
" />
<path d="M17.3634 12.6618
L17.4015 12.6999
" />
<path d="M17.4015 12.6999
L17.4777 12.7380
" />
<path d="M17.4777 12.7380
L17.6301 12.7380
" />
<path d="M17.6301 12.7380
L17.7063 12.6999
" />
<path d="M17.7063 12.6999
L17.7444 12.6618
" />
<path d="M17.7444 12.6618
L17.7825 12.5856
" />
<path d="M17.7825 12.5856
L17.7825 11.9380
" />
<path d="M18.1253 12.5095
L18.5063 12.5095
" />
<path d="M18.0492 12.7380
L18.3158 11.9380
" />
<path d="M18.3158 11.9380
L18.5825 12.7380
" />
<path d="M19.2301 12.7380
L18.8492 12.7380
" />
<path d="M18.8492 12.7380
L18.8492 11.9380
" />
<path d="M19.4968 12.7380
L19.4968 11.9380
" />
<path d="M20.1444 12.3190
L19.8777 12.3190
" />
<path d="M19.8777 12.7380
L19.8777 11.9380
" />
<path d="M19.8777 11.9380
L20.2587 11.9380
" />
<path d="M20.5634 12.7380
L20.5634 11.9380
" />
<path d="M20.9444 12.3190
L21.2111 12.3190
" />
<path d="M21.3253 12.7380
L20.9444 12.7380
" />
<path d="M20.9444 12.7380
L20.9444 11.9380
" />
<path d="M20.9444 11.9380
L21.3253 11.9380
" />
<path d="M21.6682 12.7380
L21.6682 11.9380
" />
<path d="M21.6682 11.9380
L21.8587 11.9380
" />
<path d="M21.8587 11.9380
L21.9730 11.9761
" />
<path d="M21.9730 11.9761
L22.0492 12.0523
" />
<path d="M22.0492 12.0523
L22.0872 12.1285
" />
<path d="M22.0872 12.1285
L22.1253 12.2809
" />
<path d="M22.1253 12.2809
L22.1253 12.3952
" />
<path d="M22.1253 12.3952
L22.0872 12.5475
" />
<path d="M22.0872 12.5475
L22.0492 12.6237
" />
<path d="M22.0492 12.6237
L21.9730 12.6999
" />
<path d="M21.9730 12.6999
L21.8587 12.7380
" />
<path d="M21.8587 12.7380
L21.6682 12.7380
" />
</g><text x="14.0682" y="14.0250"
textLength="15.7147" font-size="1.0667" lengthAdjust="spacingAndGlyphs"
text-anchor="middle" opacity="0" stroke-opacity="0">NOT WEARABLE QUALIFIED</text>
<g class="stroked-text"><desc>NOT WEARABLE QUALIFIED</desc>
<path d="M6.5253 13.9880
L6.5253 13.1880
" />
<path d="M6.5253 13.1880
L6.9825 13.9880
" />
<path d="M6.9825 13.9880
L6.9825 13.1880
" />
<path d="M7.5158 13.1880
L7.6682 13.1880
" />
<path d="M7.6682 13.1880
L7.7444 13.2261
" />
<path d="M7.7444 13.2261
L7.8206 13.3023
" />
<path d="M7.8206 13.3023
L7.8587 13.4547
" />
<path d="M7.8587 13.4547
L7.8587 13.7214
" />
<path d="M7.8587 13.7214
L7.8206 13.8737
" />
<path d="M7.8206 13.8737
L7.7444 13.9499
" />
<path d="M7.7444 13.9499
L7.6682 13.9880
" />
<path d="M7.6682 13.9880
L7.5158 13.9880
" />
<path d="M7.5158 13.9880
L7.4396 13.9499
" />
<path d="M7.4396 13.9499
L7.3634 13.8737
" />
<path d="M7.3634 13.8737
L7.3253 13.7214
" />
<path d="M7.3253 13.7214
L7.3253 13.4547
" />
<path d="M7.3253 13.4547
L7.3634 13.3023
" />
<path d="M7.3634 13.3023
L7.4396 13.2261
" />
<path d="M7.4396 13.2261
L7.5158 13.1880
" />
<path d="M8.0872 13.1880
L8.5444 13.1880
" />
<path d="M8.3158 13.9880
L8.3158 13.1880
" />
<path d="M9.3444 13.1880
L9.5349 13.9880
" />
<path d="M9.5349 13.9880
L9.6872 13.4166
" />
<path d="M9.6872 13.4166
L9.8396 13.9880
" />
<path d="M9.8396 13.9880
L10.0301 13.1880
" />
<path d="M10.3349 13.5690
L10.6015 13.5690
" />
<path d="M10.7158 13.9880
L10.3349 13.9880
" />
<path d="M10.3349 13.9880
L10.3349 13.1880
" />
<path d="M10.3349 13.1880
L10.7158 13.1880
" />
<path d="M11.0206 13.7595
L11.4015 13.7595
" />
<path d="M10.9444 13.9880
L11.2111 13.1880
" />
<path d="M11.2111 13.1880
L11.4777 13.9880
" />
<path d="M12.2015 13.9880
L11.9349 13.6071
" />
<path d="M11.7444 13.9880
L11.7444 13.1880
" />
<path d="M11.7444 13.1880
L12.0492 13.1880
" />
<path d="M12.0492 13.1880
L12.1253 13.2261
" />
<path d="M12.1253 13.2261
L12.1634 13.2642
" />
<path d="M12.1634 13.2642
L12.2015 13.3404
" />
<path d="M12.2015 13.3404
L12.2015 13.4547
" />
<path d="M12.2015 13.4547
L12.1634 13.5309
" />
<path d="M12.1634 13.5309
L12.1253 13.5690
" />
<path d="M12.1253 13.5690
L12.0492 13.6071
" />
<path d="M12.0492 13.6071
L11.7444 13.6071
" />
<path d="M12.5063 13.7595
L12.8872 13.7595
" />
<path d="M12.4301 13.9880
L12.6968 13.1880
" />
<path d="M12.6968 13.1880
L12.9634 13.9880
" />
<path d="M13.4968 13.5690
L13.6111 13.6071
" />
<path d="M13.6111 13.6071
L13.6492 13.6452
" />
<path d="M13.6492 13.6452
L13.6872 13.7214
" />
<path d="M13.6872 13.7214
L13.6872 13.8356
" />
<path d="M13.6872 13.8356
L13.6492 13.9118
" />
<path d="M13.6492 13.9118
L13.6111 13.9499
" />
<path d="M13.6111 13.9499
L13.5349 13.9880
" />
<path d="M13.5349 13.9880
L13.2301 13.9880
" />
<path d="M13.2301 13.9880
L13.2301 13.1880
" />
<path d="M13.2301 13.1880
L13.4968 13.1880
" />
<path d="M13.4968 13.1880
L13.5730 13.2261
" />
<path d="M13.5730 13.2261
L13.6111 13.2642
" />
<path d="M13.6111 13.2642
L13.6492 13.3404
" />
<path d="M13.6492 13.3404
L13.6492 13.4166
" />
<path d="M13.6492 13.4166
L13.6111 13.4928
" />
<path d="M13.6111 13.4928
L13.5730 13.5309
" />
<path d="M13.5730 13.5309
L13.4968 13.5690
" />
<path d="M13.4968 13.5690
L13.2301 13.5690
" />
<path d="M14.4111 13.9880
L14.0301 13.9880
" />
<path d="M14.0301 13.9880
L14.0301 13.1880
" />
<path d="M14.6777 13.5690
L14.9444 13.5690
" />
<path d="M15.0587 13.9880
L14.6777 13.9880
" />
<path d="M14.6777 13.9880
L14.6777 13.1880
" />
<path d="M14.6777 13.1880
L15.0587 13.1880
" />
<path d="M16.5444 14.0642
L16.4682 14.0261
" />
<path d="M16.4682 14.0261
L16.3920 13.9499
" />
<path d="M16.3920 13.9499
L16.2777 13.8356
" />
<path d="M16.2777 13.8356
L16.2015 13.7975
" />
<path d="M16.2015 13.7975
L16.1253 13.7975
" />
<path d="M16.1634 13.9880
L16.0872 13.9499
" />
<path d="M16.0872 13.9499
L16.0111 13.8737
" />
<path d="M16.0111 13.8737
L15.9730 13.7214
" />
<path d="M15.9730 13.7214
L15.9730 13.4547
" />
<path d="M15.9730 13.4547
L16.0111 13.3023
" />
<path d="M16.0111 13.3023
L16.0872 13.2261
" />
<path d="M16.0872 13.2261
L16.1634 13.1880
" />
<path d="M16.1634 13.1880
L16.3158 13.1880
" />
<path d="M16.3158 13.1880
L16.3920 13.2261
" />
<path d="M16.3920 13.2261
L16.4682 13.3023
" />
<path d="M16.4682 13.3023
L16.5063 13.4547
" />
<path d="M16.5063 13.4547
L16.5063 13.7214
" />
<path d="M16.5063 13.7214
L16.4682 13.8737
" />
<path d="M16.4682 13.8737
L16.3920 13.9499
" />
<path d="M16.3920 13.9499
L16.3158 13.9880
" />
<path d="M16.3158 13.9880
L16.1634 13.9880
" />
<path d="M16.8492 13.1880
L16.8492 13.8356
" />
<path d="M16.8492 13.8356
L16.8872 13.9118
" />
<path d="M16.8872 13.9118
L16.9253 13.9499
" />
<path d="M16.9253 13.9499
L17.0015 13.9880
" />
<path d="M17.0015 13.9880
L17.1539 13.9880
" />
<path d="M17.1539 13.9880
L17.2301 13.9499
" />
<path d="M17.2301 13.9499
L17.2682 13.9118
" />
<path d="M17.2682 13.9118
L17.3063 13.8356
" />
<path d="M17.3063 13.8356
L17.3063 13.1880
" />
<path d="M17.6492 13.7595
L18.0301 13.7595
" />
<path d="M17.5730 13.9880
L17.8396 13.1880
" />
<path d="M17.8396 13.1880
L18.1063 13.9880
" />
<path d="M18.7539 13.9880
L18.3730 13.9880
" />
<path d="M18.3730 13.9880
L18.3730 13.1880
" />
<path d="M19.0206 13.9880
L19.0206 13.1880
" />
<path d="M19.6682 13.5690
L19.4015 13.5690
" />
<path d="M19.4015 13.9880
L19.4015 13.1880
" />
<path d="M19.4015 13.1880
L19.7825 13.1880
" />
<path d="M20.0872 13.9880
L20.0872 13.1880
" />
<path d="M20.4682 13.5690
L20.7349 13.5690
" />
<path d="M20.8492 13.9880
L20.4682 13.9880
" />
<path d="M20.4682 13.9880
L20.4682 13.1880
" />
<path d="M20.4682 13.1880
L20.8492 13.1880
" />
<path d="M21.1920 13.9880
L21.1920 13.1880
" />
<path d="M21.1920 13.1880
L21.3825 13.1880
" />
<path d="M21.3825 13.1880
L21.4968 13.2261
" />
<path d="M21.4968 13.2261
L21.5730 13.3023
" />
<path d="M21.5730 13.3023
L21.6111 13.3785
" />
<path d="M21.6111 13.3785
L21.6492 13.5309
" />
<path d="M21.6492 13.5309
L21.6492 13.6452
" />
<path d="M21.6492 13.6452
L21.6111 13.7975
" />
<path d="M21.6111 13.7975
L21.5730 13.8737
" />
<path d="M21.5730 13.8737
L21.4968 13.9499
" />
<path d="M21.4968 13.9499
L21.3825 13.9880
" />
<path d="M21.3825 13.9880
L21.1920 13.9880
" />
</g><text x="14.0682" y="15.2750"
textLength="13.5813" font-size="1.0667" lengthAdjust="spacingAndGlyphs"
text-anchor="middle" opacity="0" stroke-opacity="0">NOT FOR FABRICATION</text>
<g class="stroked-text"><desc>NOT FOR FABRICATION</desc>
<path d="M7.5920 15.2380
L7.5920 14.4380
" />
<path d="M7.5920 14.4380
L8.0492 15.2380
" />
<path d="M8.0492 15.2380
L8.0492 14.4380
" />
<path d="M8.5825 14.4380
L8.7349 14.4380
" />
<path d="M8.7349 14.4380
L8.8111 14.4761
" />
<path d="M8.8111 14.4761
L8.8872 14.5523
" />
<path d="M8.8872 14.5523
L8.9253 14.7047
" />
<path d="M8.9253 14.7047
L8.9253 14.9714
" />
<path d="M8.9253 14.9714
L8.8872 15.1237
" />
<path d="M8.8872 15.1237
L8.8111 15.1999
" />
<path d="M8.8111 15.1999
L8.7349 15.2380
" />
<path d="M8.7349 15.2380
L8.5825 15.2380
" />
<path d="M8.5825 15.2380
L8.5063 15.1999
" />
<path d="M8.5063 15.1999
L8.4301 15.1237
" />
<path d="M8.4301 15.1237
L8.3920 14.9714
" />
<path d="M8.3920 14.9714
L8.3920 14.7047
" />
<path d="M8.3920 14.7047
L8.4301 14.5523
" />
<path d="M8.4301 14.5523
L8.5063 14.4761
" />
<path d="M8.5063 14.4761
L8.5825 14.4380
" />
<path d="M9.1539 14.4380
L9.6111 14.4380
" />
<path d="M9.3825 15.2380
L9.3825 14.4380
" />
<path d="M10.7539 14.8190
L10.4872 14.8190
" />
<path d="M10.4872 15.2380
L10.4872 14.4380
" />
<path d="M10.4872 14.4380
L10.8682 14.4380
" />
<path d="M11.3253 14.4380
L11.4777 14.4380
" />
<path d="M11.4777 14.4380
L11.5539 14.4761
" />
<path d="M11.5539 14.4761
L11.6301 14.5523
" />
<path d="M11.6301 14.5523
L11.6682 14.7047
" />
<path d="M11.6682 14.7047
L11.6682 14.9714
" />
<path d="M11.6682 14.9714
L11.6301 15.1237
" />
<path d="M11.6301 15.1237
L11.5539 15.1999
" />
<path d="M11.5539 15.1999
L11.4777 15.2380
" />
<path d="M11.4777 15.2380
L11.3253 15.2380
" />
<path d="M11.3253 15.2380
L11.2492 15.1999
" />
<path d="M11.2492 15.1999
L11.1730 15.1237
" />
<path d="M11.1730 15.1237
L11.1349 14.9714
" />
<path d="M11.1349 14.9714
L11.1349 14.7047
" />
<path d="M11.1349 14.7047
L11.1730 14.5523
" />
<path d="M11.1730 14.5523
L11.2492 14.4761
" />
<path d="M11.2492 14.4761
L11.3253 14.4380
" />
<path d="M12.4682 15.2380
L12.2015 14.8571
" />
<path d="M12.0111 15.2380
L12.0111 14.4380
" />
<path d="M12.0111 14.4380
L12.3158 14.4380
" />
<path d="M12.3158 14.4380
L12.3920 14.4761
" />
<path d="M12.3920 14.4761
L12.4301 14.5142
" />
<path d="M12.4301 14.5142
L12.4682 14.5904
" />
<path d="M12.4682 14.5904
L12.4682 14.7047
" />
<path d="M12.4682 14.7047
L12.4301 14.7809
" />
<path d="M12.4301 14.7809
L12.3920 14.8190
" />
<path d="M12.3920 14.8190
L12.3158 14.8571
" />
<path d="M12.3158 14.8571
L12.0111 14.8571
" />
<path d="M13.6872 14.8190
L13.4206 14.8190
" />
<path d="M13.4206 15.2380
L13.4206 14.4380
" />
<path d="M13.4206 14.4380
L13.8015 14.4380
" />
<path d="M14.0682 15.0095
L14.4492 15.0095
" />
<path d="M13.9920 15.2380
L14.2587 14.4380
" />
<path d="M14.2587 14.4380
L14.5253 15.2380
" />
<path d="M15.0587 14.8190
L15.1730 14.8571
" />
<path d="M15.1730 14.8571
L15.2111 14.8952
" />
<path d="M15.2111 14.8952
L15.2492 14.9714
" />
<path d="M15.2492 14.9714
L15.2492 15.0856
" />
<path d="M15.2492 15.0856
L15.2111 15.1618
" />
<path d="M15.2111 15.1618
L15.1730 15.1999
" />
<path d="M15.1730 15.1999
L15.0968 15.2380
" />
<path d="M15.0968 15.2380
L14.7920 15.2380
" />
<path d="M14.7920 15.2380
L14.7920 14.4380
" />
<path d="M14.7920 14.4380
L15.0587 14.4380
" />
<path d="M15.0587 14.4380
L15.1349 14.4761
" />
<path d="M15.1349 14.4761
L15.1730 14.5142
" />
<path d="M15.1730 14.5142
L15.2111 14.5904
" />
<path d="M15.2111 14.5904
L15.2111 14.6666
" />
<path d="M15.2111 14.6666
L15.1730 14.7428
" />
<path d="M15.1730 14.7428
L15.1349 14.7809
" />
<path d="M15.1349 14.7809
L15.0587 14.8190
" />
<path d="M15.0587 14.8190
L14.7920 14.8190
" />
<path d="M16.0492 15.2380
L15.7825 14.8571
" />
<path d="M15.5920 15.2380
L15.5920 14.4380
" />
<path d="M15.5920 14.4380
L15.8968 14.4380
" />
<path d="M15.8968 14.4380
L15.9730 14.4761
" />
<path d="M15.9730 14.4761
L16.0111 14.5142
" />
<path d="M16.0111 14.5142
L16.0492 14.5904
" />
<path d="M16.0492 14.5904
L16.0492 14.7047
" />
<path d="M16.0492 14.7047
L16.0111 14.7809
" />
<path d="M16.0111 14.7809
L15.9730 14.8190
" />
<path d="M15.9730 14.8190
L15.8968 14.8571
" />
<path d="M15.8968 14.8571
L15.5920 14.8571
" />
<path d="M16.3920 15.2380
L16.3920 14.4380
" />
<path d="M17.2301 15.1618
L17.1920 15.1999
" />
<path d="M17.1920 15.1999
L17.0777 15.2380
" />
<path d="M17.0777 15.2380
L17.0015 15.2380
" />
<path d="M17.0015 15.2380
L16.8872 15.1999
" />
<path d="M16.8872 15.1999
L16.8111 15.1237
" />
<path d="M16.8111 15.1237
L16.7730 15.0475
" />
<path d="M16.7730 15.0475
L16.7349 14.8952
" />
<path d="M16.7349 14.8952
L16.7349 14.7809
" />
<path d="M16.7349 14.7809
L16.7730 14.6285
" />
<path d="M16.7730 14.6285
L16.8111 14.5523
" />
<path d="M16.8111 14.5523
L16.8872 14.4761
" />
<path d="M16.8872 14.4761
L17.0015 14.4380
" />
<path d="M17.0015 14.4380
L17.0777 14.4380
" />
<path d="M17.0777 14.4380
L17.1920 14.4761
" />
<path d="M17.1920 14.4761
L17.2301 14.5142
" />
<path d="M17.5349 15.0095
L17.9158 15.0095
" />
<path d="M17.4587 15.2380
L17.7253 14.4380
" />
<path d="M17.7253 14.4380
L17.9920 15.2380
" />
<path d="M18.1444 14.4380
L18.6015 14.4380
" />
<path d="M18.3730 15.2380
L18.3730 14.4380
" />
<path d="M18.8682 15.2380
L18.8682 14.4380
" />
<path d="M19.4015 14.4380
L19.5539 14.4380
" />
<path d="M19.5539 14.4380
L19.6301 14.4761
" />
<path d="M19.6301 14.4761
L19.7063 14.5523
" />
<path d="M19.7063 14.5523
L19.7444 14.7047
" />
<path d="M19.7444 14.7047
L19.7444 14.9714
" />
<path d="M19.7444 14.9714
L19.7063 15.1237
" />
<path d="M19.7063 15.1237
L19.6301 15.1999
" />
<path d="M19.6301 15.1999
L19.5539 15.2380
" />
<path d="M19.5539 15.2380
L19.4015 15.2380
" />
<path d="M19.4015 15.2380
L19.3253 15.1999
" />
<path d="M19.3253 15.1999
L19.2492 15.1237
" />
<path d="M19.2492 15.1237
L19.2111 14.9714
" />
<path d="M19.2111 14.9714
L19.2111 14.7047
" />
<path d="M19.2111 14.7047
L19.2492 14.5523
" />
<path d="M19.2492 14.5523
L19.3253 14.4761
" />
<path d="M19.3253 14.4761
L19.4015 14.4380
" />
<path d="M20.0872 15.2380
L20.0872 14.4380
" />
<path d="M20.0872 14.4380
L20.5444 15.2380
" />
<path d="M20.5444 15.2380
L20.5444 14.4380
" />
</g><text x="14.0682" y="33.4750"
textLength="15.8670" font-size="1.0667" lengthAdjust="spacingAndGlyphs"
text-anchor="middle" opacity="0" stroke-opacity="0">CARRIER CLAMP - VERIFY</text>
<g class="stroked-text"><desc>CARRIER CLAMP - VERIFY</desc>
<path d="M6.9063 33.3618
L6.8682 33.3999
" />
<path d="M6.8682 33.3999
L6.7539 33.4380
" />
<path d="M6.7539 33.4380
L6.6777 33.4380
" />
<path d="M6.6777 33.4380
L6.5634 33.3999
" />
<path d="M6.5634 33.3999
L6.4872 33.3237
" />
<path d="M6.4872 33.3237
L6.4492 33.2475
" />
<path d="M6.4492 33.2475
L6.4111 33.0952
" />
<path d="M6.4111 33.0952
L6.4111 32.9809
" />
<path d="M6.4111 32.9809
L6.4492 32.8285
" />
<path d="M6.4492 32.8285
L6.4872 32.7523
" />
<path d="M6.4872 32.7523
L6.5634 32.6761
" />
<path d="M6.5634 32.6761
L6.6777 32.6380
" />
<path d="M6.6777 32.6380
L6.7539 32.6380
" />
<path d="M6.7539 32.6380
L6.8682 32.6761
" />
<path d="M6.8682 32.6761
L6.9063 32.7142
" />
<path d="M7.2111 33.2095
L7.5920 33.2095
" />
<path d="M7.1349 33.4380
L7.4015 32.6380
" />
<path d="M7.4015 32.6380
L7.6682 33.4380
" />
<path d="M8.3920 33.4380
L8.1253 33.0571
" />
<path d="M7.9349 33.4380
L7.9349 32.6380
" />
<path d="M7.9349 32.6380
L8.2396 32.6380
" />
<path d="M8.2396 32.6380
L8.3158 32.6761
" />
<path d="M8.3158 32.6761
L8.3539 32.7142
" />
<path d="M8.3539 32.7142
L8.3920 32.7904
" />
<path d="M8.3920 32.7904
L8.3920 32.9047
" />
<path d="M8.3920 32.9047
L8.3539 32.9809
" />
<path d="M8.3539 32.9809
L8.3158 33.0190
" />
<path d="M8.3158 33.0190
L8.2396 33.0571
" />
<path d="M8.2396 33.0571
L7.9349 33.0571
" />
<path d="M9.1920 33.4380
L8.9253 33.0571
" />
<path d="M8.7349 33.4380
L8.7349 32.6380
" />
<path d="M8.7349 32.6380
L9.0396 32.6380
" />
<path d="M9.0396 32.6380
L9.1158 32.6761
" />
<path d="M9.1158 32.6761
L9.1539 32.7142
" />
<path d="M9.1539 32.7142
L9.1920 32.7904
" />
<path d="M9.1920 32.7904
L9.1920 32.9047
" />
<path d="M9.1920 32.9047
L9.1539 32.9809
" />
<path d="M9.1539 32.9809
L9.1158 33.0190
" />
<path d="M9.1158 33.0190
L9.0396 33.0571
" />
<path d="M9.0396 33.0571
L8.7349 33.0571
" />
<path d="M9.5349 33.4380
L9.5349 32.6380
" />
<path d="M9.9158 33.0190
L10.1825 33.0190
" />
<path d="M10.2968 33.4380
L9.9158 33.4380
" />
<path d="M9.9158 33.4380
L9.9158 32.6380
" />
<path d="M9.9158 32.6380
L10.2968 32.6380
" />
<path d="M11.0968 33.4380
L10.8301 33.0571
" />
<path d="M10.6396 33.4380
L10.6396 32.6380
" />
<path d="M10.6396 32.6380
L10.9444 32.6380
" />
<path d="M10.9444 32.6380
L11.0206 32.6761
" />
<path d="M11.0206 32.6761
L11.0587 32.7142
" />
<path d="M11.0587 32.7142
L11.0968 32.7904
" />
<path d="M11.0968 32.7904
L11.0968 32.9047
" />
<path d="M11.0968 32.9047
L11.0587 32.9809
" />
<path d="M11.0587 32.9809
L11.0206 33.0190
" />
<path d="M11.0206 33.0190
L10.9444 33.0571
" />
<path d="M10.9444 33.0571
L10.6396 33.0571
" />
<path d="M12.5063 33.3618
L12.4682 33.3999
" />
<path d="M12.4682 33.3999
L12.3539 33.4380
" />
<path d="M12.3539 33.4380
L12.2777 33.4380
" />
<path d="M12.2777 33.4380
L12.1634 33.3999
" />
<path d="M12.1634 33.3999
L12.0872 33.3237
" />
<path d="M12.0872 33.3237
L12.0492 33.2475
" />
<path d="M12.0492 33.2475
L12.0111 33.0952
" />
<path d="M12.0111 33.0952
L12.0111 32.9809
" />
<path d="M12.0111 32.9809
L12.0492 32.8285
" />
<path d="M12.0492 32.8285
L12.0872 32.7523
" />
<path d="M12.0872 32.7523
L12.1634 32.6761
" />
<path d="M12.1634 32.6761
L12.2777 32.6380
" />
<path d="M12.2777 32.6380
L12.3539 32.6380
" />
<path d="M12.3539 32.6380
L12.4682 32.6761
" />
<path d="M12.4682 32.6761
L12.5063 32.7142
" />
<path d="M13.2301 33.4380
L12.8492 33.4380
" />
<path d="M12.8492 33.4380
L12.8492 32.6380
" />
<path d="M13.4587 33.2095
L13.8396 33.2095
" />
<path d="M13.3825 33.4380
L13.6492 32.6380
" />
<path d="M13.6492 32.6380
L13.9158 33.4380
" />
<path d="M14.1825 33.4380
L14.1825 32.6380
" />
<path d="M14.1825 32.6380
L14.4492 33.2095
" />
<path d="M14.4492 33.2095
L14.7158 32.6380
" />
<path d="M14.7158 32.6380
L14.7158 33.4380
" />
<path d="M15.0968 33.4380
L15.0968 32.6380
" />
<path d="M15.0968 32.6380
L15.4015 32.6380
" />
<path d="M15.4015 32.6380
L15.4777 32.6761
" />
<path d="M15.4777 32.6761
L15.5158 32.7142
" />
<path d="M15.5158 32.7142
L15.5539 32.7904
" />
<path d="M15.5539 32.7904
L15.5539 32.9047
" />
<path d="M15.5539 32.9047
L15.5158 32.9809
" />
<path d="M15.5158 32.9809
L15.4777 33.0190
" />
<path d="M15.4777 33.0190
L15.4015 33.0571
" />
<path d="M15.4015 33.0571
L15.0968 33.0571
" />
<path d="M16.5063 33.1333
L17.1158 33.1333
" />
<path d="M17.9920 32.6380
L18.2587 33.4380
" />
<path d="M18.2587 33.4380
L18.5253 32.6380
" />
<path d="M18.7920 33.0190
L19.0587 33.0190
" />
<path d="M19.1730 33.4380
L18.7920 33.4380
" />
<path d="M18.7920 33.4380
L18.7920 32.6380
" />
<path d="M18.7920 32.6380
L19.1730 32.6380
" />
<path d="M19.9730 33.4380
L19.7063 33.0571
" />
<path d="M19.5158 33.4380
L19.5158 32.6380
" />
<path d="M19.5158 32.6380
L19.8206 32.6380
" />
<path d="M19.8206 32.6380
L19.8968 32.6761
" />
<path d="M19.8968 32.6761
L19.9349 32.7142
" />
<path d="M19.9349 32.7142
L19.9730 32.7904
" />
<path d="M19.9730 32.7904
L19.9730 32.9047
" />
<path d="M19.9730 32.9047
L19.9349 32.9809
" />
<path d="M19.9349 32.9809
L19.8968 33.0190
" />
<path d="M19.8968 33.0190
L19.8206 33.0571
" />
<path d="M19.8206 33.0571
L19.5158 33.0571
" />
<path d="M20.3158 33.4380
L20.3158 32.6380
" />
<path d="M20.9634 33.0190
L20.6968 33.0190
" />
<path d="M20.6968 33.4380
L20.6968 32.6380
" />
<path d="M20.6968 32.6380
L21.0777 32.6380
" />
<path d="M21.5349 33.0571
L21.5349 33.4380
" />
<path d="M21.2682 32.6380
L21.5349 33.0571
" />
<path d="M21.5349 33.0571
L21.8015 32.6380
" />
</g></g>
<g style="fill:none; 
stroke:#D0D2CD; stroke-width:0.1500; stroke-opacity:1; 
stroke-linecap:round; stroke-linejoin:round;">
<path d="M0.0682 0.0750
L0.0682 34.0750
" />
<path d="M28.0682 0.0750
L0.0682 0.0750
" />
<path d="M0.0682 34.0750
L28.0682 34.0750
" />
<path d="M28.0682 34.0750
L28.0682 0.0750
" />
</g>
<g style="fill:#FFFFFF; fill-opacity:1.0000; stroke:none;">
<circle cx="12.8682" cy="20.5750" r="1.0000" /> 
</g>
<g style="fill:#FFFFFF; fill-opacity:1.0000; stroke:none;">
<circle cx="2.7882" cy="20.5750" r="1.0000" /> 
</g>
<g style="fill:#FFFFFF; fill-opacity:1.0000; stroke:none;">
<circle cx="10.3682" cy="16.5750" r="0.4000" /> 
</g>
<g style="fill:#FFFFFF; fill-opacity:1.0000; stroke:none;">
<circle cx="7.8282" cy="16.5750" r="0.4000" /> 
</g>
<g style="fill:#FFFFFF; fill-opacity:1.0000; stroke:none;">
<circle cx="5.2882" cy="16.5750" r="0.4000" /> 
</g>
<g style="fill:#FFFFFF; fill-opacity:1.0000; stroke:none;">
<circle cx="23.0682" cy="5.0750" r="0.5100" /> 
</g>
<g style="fill:#FFFFFF; fill-opacity:1.0000; stroke:none;">
<circle cx="20.5282" cy="5.0750" r="0.5100" /> 
</g>
<g style="fill:#FFFFFF; fill-opacity:1.0000; stroke:none;">
<circle cx="17.9882" cy="5.0750" r="0.5100" /> 
</g>
<g style="fill:#FFFFFF; fill-opacity:1.0000; stroke:none;">
<circle cx="15.4482" cy="5.0750" r="0.5100" /> 
</g>
<g style="fill:#FFFFFF; fill-opacity:1.0000; stroke:none;">
<circle cx="12.9082" cy="5.0750" r="0.5100" /> 
</g>
<g style="fill:#FFFFFF; fill-opacity:1.0000; stroke:none;">
<circle cx="5.2882" cy="5.0750" r="0.5100" /> 
</g>
<g style="fill:#FFFFFF; fill-opacity:1.0000; stroke:none;">
<circle cx="10.3682" cy="5.0750" r="0.5100" /> 
</g>
<g style="fill:#FFFFFF; fill-opacity:1.0000; stroke:none;">
<circle cx="7.8282" cy="5.0750" r="0.5100" /> 
</g>
<g style="fill:#FFFFFF; fill-opacity:1.0000; stroke:none;">
<circle cx="19.0682" cy="29.5750" r="1.3500" /> 
</g>
<g style="fill:#FFFFFF; fill-opacity:1.0000; stroke:none;">
<circle cx="9.0682" cy="29.5750" r="1.3500" /> 
</g> 
</svg>
